# This file uses centimeters as units for non-parametric coordinates.

g default
v -0.620184 0.495108 -0.093656
v -0.620184 0.452059 -0.178144
v -0.620184 0.385009 -0.245194
v -0.620184 0.300521 -0.288243
v -0.620184 0.206865 -0.303077
v -0.620184 0.113209 -0.288243
v -0.620184 0.028721 -0.245194
v -0.620184 -0.038329 -0.178144
v -0.620184 -0.081378 -0.093656
v -0.620184 -0.096211 -0.000000
v -0.620184 -0.081378 0.093656
v -0.620184 -0.038329 0.178144
v -0.620184 0.028721 0.245194
v -0.620184 0.113210 0.288243
v -0.620184 0.206865 0.303076
v -0.620184 0.300521 0.288243
v -0.620184 0.385009 0.245194
v -0.620184 0.452059 0.178144
v -0.620184 0.495108 0.093656
v -0.620184 0.509942 -0.000000
v -2.741168 0.373730 -0.054218
v -2.741168 0.348809 -0.103128
v -2.741168 0.309994 -0.141944
v -2.741168 0.261083 -0.166865
v -2.741168 0.206865 -0.175452
v -2.741168 0.152648 -0.166865
v -2.741168 0.103737 -0.141944
v -2.741168 0.064921 -0.103128
v -2.741168 0.040000 -0.054218
v -2.741168 0.031413 -0.000000
v -2.741168 0.040000 0.054218
v -2.741168 0.064921 0.103128
v -2.741168 0.103737 0.141944
v -2.741168 0.152648 0.166865
v -2.741168 0.206865 0.175452
v -2.741168 0.261083 0.166865
v -2.741168 0.309993 0.141944
v -2.741168 0.348809 0.103128
v -2.741168 0.373730 0.054218
v -2.741168 0.382317 -0.000000
v -0.620184 0.206865 -0.000000
v -2.741168 0.206865 -0.000000
v -2.602301 0.663212 -0.148276
v -2.602301 0.595057 -0.282038
v -2.602301 0.488903 -0.388192
v -2.602301 0.355141 -0.456347
v -2.602301 0.206865 -0.479832
v -2.602301 0.058589 -0.456347
v -2.602301 -0.075173 -0.388192
v -2.602301 -0.181327 -0.282038
v -2.602301 -0.249482 -0.148276
v -2.602301 -0.272966 -0.000000
v -2.602301 -0.249482 0.148276
v -2.602301 -0.181326 0.282038
v -2.602301 -0.075173 0.388192
v -2.602301 0.058589 0.456347
v -2.602301 0.206865 0.479831
v -2.602301 0.355141 0.456347
v -2.602301 0.488903 0.388192
v -2.602301 0.595057 0.282038
v -2.602301 0.663212 0.148276
v -2.602301 0.686697 -0.000000
v -4.235023 0.206865 0.000000
vt 0.648603 0.107966
vt 0.626409 0.064408
vt 0.591842 0.029841
vt 0.548284 0.007647
vt 0.500000 -0.000000
vt 0.451716 0.007647
vt 0.408159 0.029841
vt 0.373591 0.064409
vt 0.351397 0.107966
vt 0.343750 0.156250
vt 0.351397 0.204534
vt 0.373591 0.248091
vt 0.408159 0.282659
vt 0.451716 0.304853
vt 0.500000 0.312500
vt 0.548284 0.304853
vt 0.591841 0.282659
vt 0.626409 0.248091
vt 0.648603 0.204534
vt 0.656250 0.156250
vt 0.375000 0.312500
vt 0.387500 0.312500
vt 0.400000 0.312500
vt 0.412500 0.312500
vt 0.425000 0.312500
vt 0.437500 0.312500
vt 0.450000 0.312500
vt 0.462500 0.312500
vt 0.475000 0.312500
vt 0.487500 0.312500
vt 0.500000 0.312500
vt 0.512500 0.312500
vt 0.525000 0.312500
vt 0.537500 0.312500
vt 0.550000 0.312500
vt 0.562500 0.312500
vt 0.575000 0.312500
vt 0.587500 0.312500
vt 0.600000 0.312500
vt 0.612500 0.312500
vt 0.625000 0.312500
vt 0.375000 0.688440
vt 0.387500 0.688440
vt 0.400000 0.688440
vt 0.412500 0.688440
vt 0.425000 0.688440
vt 0.437500 0.688440
vt 0.450000 0.688440
vt 0.462500 0.688440
vt 0.475000 0.688440
vt 0.487500 0.688440
vt 0.500000 0.688440
vt 0.512500 0.688440
vt 0.525000 0.688440
vt 0.537500 0.688440
vt 0.550000 0.688440
vt 0.562500 0.688440
vt 0.575000 0.688440
vt 0.587500 0.688440
vt 0.600000 0.688440
vt 0.612500 0.688440
vt 0.625000 0.688440
vt 0.648603 0.795466
vt 0.626409 0.751908
vt 0.591842 0.717341
vt 0.548284 0.695147
vt 0.500000 0.687500
vt 0.451716 0.695147
vt 0.408159 0.717341
vt 0.373591 0.751909
vt 0.351397 0.795466
vt 0.343750 0.843750
vt 0.351397 0.892034
vt 0.373591 0.935591
vt 0.408159 0.970159
vt 0.451716 0.992353
vt 0.500000 1.000000
vt 0.548284 0.992353
vt 0.591841 0.970159
vt 0.626409 0.935591
vt 0.648603 0.892034
vt 0.656250 0.843750
vt 0.500000 0.150000
vt 0.500000 0.837500
vt 0.737764 0.172746
vt 0.750000 0.250000
vt 0.737764 0.327254
vt 0.702254 0.396946
vt 0.646946 0.452254
vt 0.577254 0.487764
vt 0.500000 0.500000
vt 0.422746 0.487764
vt 0.353054 0.452254
vt 0.297746 0.396946
vt 0.262236 0.327254
vt 0.250000 0.250000
vt 0.262236 0.172746
vt 0.297746 0.103054
vt 0.353054 0.047746
vt 0.422746 0.012236
vt 0.500000 -0.000000
vt 0.577254 0.012236
vt 0.646946 0.047746
vt 0.702254 0.103054
vt 0.250000 0.500000
vt 0.275000 0.500000
vt 0.500000 1.000000
vt 0.300000 0.500000
vt 0.325000 0.500000
vt 0.350000 0.500000
vt 0.375000 0.500000
vt 0.400000 0.500000
vt 0.425000 0.500000
vt 0.450000 0.500000
vt 0.475000 0.500000
vt 0.500000 0.500000
vt 0.525000 0.500000
vt 0.550000 0.500000
vt 0.575000 0.500000
vt 0.600000 0.500000
vt 0.625000 0.500000
vt 0.650000 0.500000
vt 0.675000 0.500000
vt 0.700000 0.500000
vt 0.725000 0.500000
vt 0.750000 0.500000
vn -0.060064 0.949340 -0.308458
vn -0.060064 0.807557 -0.586724
vn -0.060064 0.807557 -0.586724
vn -0.060064 0.949340 -0.308458
vn -0.060064 0.586724 -0.807557
vn -0.060064 0.586724 -0.807557
vn -0.060064 0.308459 -0.949340
vn -0.060064 0.308459 -0.949340
vn -0.060064 -0.000000 -0.998195
vn -0.060064 -0.000000 -0.998195
vn -0.060064 -0.308459 -0.949340
vn -0.060064 -0.308459 -0.949339
vn -0.060064 -0.586724 -0.807556
vn -0.060064 -0.586724 -0.807556
vn -0.060064 -0.807557 -0.586724
vn -0.060064 -0.807557 -0.586724
vn -0.060064 -0.949340 -0.308459
vn -0.060064 -0.949340 -0.308459
vn -0.060064 -0.998195 0.000000
vn -0.060064 -0.998195 0.000000
vn -0.060064 -0.949339 0.308459
vn -0.060064 -0.949340 0.308459
vn -0.060064 -0.807556 0.586724
vn -0.060064 -0.807556 0.586724
vn -0.060064 -0.586724 0.807557
vn -0.060064 -0.586724 0.807557
vn -0.060064 -0.308459 0.949340
vn -0.060064 -0.308459 0.949340
vn -0.060064 0.000000 0.998195
vn -0.060064 0.000000 0.998195
vn -0.060064 0.308459 0.949339
vn -0.060064 0.308459 0.949340
vn -0.060064 0.586724 0.807556
vn -0.060064 0.586724 0.807556
vn -0.060064 0.807557 0.586724
vn -0.060064 0.807557 0.586724
vn -0.060064 0.949340 0.308459
vn -0.060064 0.949340 0.308459
vn -0.060064 0.998195 0.000001
vn -0.060064 0.998195 0.000001
vn 1.000000 -0.000000 -0.000001
vn 1.000000 -0.000000 -0.000000
vn 1.000000 -0.000000 -0.000000
vn 1.000000 -0.000000 -0.000000
vn 1.000000 -0.000000 -0.000000
vn 1.000000 -0.000000 0.000000
vn 1.000000 -0.000000 0.000000
vn 1.000000 -0.000000 0.000000
vn 1.000000 -0.000000 0.000000
vn 1.000000 -0.000000 -0.000001
vn 1.000000 -0.000000 0.000000
vn 1.000000 -0.000000 0.000000
vn 1.000000 -0.000000 -0.000000
vn 1.000000 -0.000000 0.000000
vn 1.000000 -0.000000 -0.000000
vn 1.000000 -0.000000 0.000000
vn 1.000000 -0.000000 0.000000
vn 1.000000 -0.000000 0.000000
vn 1.000000 -0.000000 0.000000
vn 1.000000 -0.000000 0.000000
vn 1.000000 -0.000000 0.000001
vn -1.000000 0.000000 0.000000
vn -1.000000 0.000000 0.000000
vn -1.000000 0.000000 0.000000
vn -1.000000 0.000000 0.000003
vn -1.000000 0.000000 0.000003
vn -1.000000 0.000000 0.000000
vn -1.000000 0.000000 -0.000002
vn -1.000000 0.000000 -0.000002
vn -1.000000 0.000000 0.000000
vn -1.000000 0.000000 0.000000
vn -1.000000 0.000000 0.000000
vn -1.000000 0.000000 -0.000003
vn -1.000000 0.000000 0.000000
vn -1.000000 0.000000 0.000003
vn -1.000000 0.000000 0.000000
vn -1.000000 0.000000 0.000002
vn -1.000000 0.000000 -0.000000
vn -1.000000 0.000000 -0.000005
vn -1.000000 0.000000 -0.000003
vn -1.000000 0.000000 0.000003
vn -1.000000 0.000000 0.000003
vn 1.000000 -0.000000 -0.000000
vn 1.000000 -0.000000 -0.000000
vn 1.000000 -0.000000 -0.000000
vn 1.000000 -0.000000 -0.000000
vn 1.000000 -0.000000 -0.000000
vn 1.000000 -0.000000 -0.000000
vn 1.000000 -0.000000 -0.000000
vn 1.000000 -0.000000 -0.000000
vn 1.000000 -0.000000 -0.000000
vn 1.000000 -0.000000 -0.000000
vn 1.000000 -0.000000 -0.000000
vn 1.000000 -0.000000 -0.000000
vn 1.000000 -0.000000 -0.000000
vn 1.000000 -0.000000 -0.000000
vn 1.000000 -0.000000 -0.000000
vn 1.000000 -0.000000 -0.000000
vn 1.000000 -0.000000 -0.000000
vn 1.000000 -0.000000 -0.000000
vn 1.000000 -0.000000 -0.000000
vn 1.000000 -0.000000 -0.000000
vn -0.281960 0.912469 -0.296478
vn -0.281960 0.776192 -0.563936
vn -1.000000 -0.000007 -0.000005
vn -0.281960 0.563936 -0.776192
vn -0.281960 0.296479 -0.912468
vn -0.281960 -0.000000 -0.959426
vn -0.281960 -0.296480 -0.912468
vn -0.281960 -0.563937 -0.776192
vn -0.281960 -0.776192 -0.563936
vn -0.281960 -0.912468 -0.296480
vn -0.281960 -0.959426 -0.000000
vn -0.281960 -0.912468 0.296479
vn -0.281960 -0.776192 0.563936
vn -0.281960 -0.563936 0.776192
vn -0.281960 -0.296479 0.912468
vn -0.281960 -0.000000 0.959426
vn -0.281960 0.296479 0.912468
vn -0.281960 0.563936 0.776192
vn -0.281960 0.776192 0.563937
vn -0.281960 0.912468 0.296479
vn -0.281960 0.959426 0.000000
s 1
g pCylinder3
usemtl initialShadingGroup
f 1/21/1 2/22/2 22/43/3 21/42/4
f 2/22/2 3/23/5 23/44/6 22/43/3
f 3/23/5 4/24/7 24/45/8 23/44/6
f 4/24/7 5/25/9 25/46/10 24/45/8
f 5/25/9 6/26/11 26/47/12 25/46/10
f 6/26/11 7/27/13 27/48/14 26/47/12
f 7/27/13 8/28/15 28/49/16 27/48/14
f 8/28/15 9/29/17 29/50/18 28/49/16
f 9/29/17 10/30/19 30/51/20 29/50/18
f 10/30/19 11/31/21 31/52/22 30/51/20
f 11/31/21 12/32/23 32/53/24 31/52/22
f 12/32/23 13/33/25 33/54/26 32/53/24
f 13/33/25 14/34/27 34/55/28 33/54/26
f 14/34/27 15/35/29 35/56/30 34/55/28
f 15/35/29 16/36/31 36/57/32 35/56/30
f 16/36/31 17/37/33 37/58/34 36/57/32
f 17/37/33 18/38/35 38/59/36 37/58/34
f 18/38/35 19/39/37 39/60/38 38/59/36
f 19/39/37 20/40/39 40/61/40 39/60/38
f 20/40/39 1/41/1 21/62/4 40/61/40
s 2
f 2/2/41 1/1/42 41/83/43
f 3/3/44 2/2/41 41/83/43
f 4/4/45 3/3/44 41/83/43
f 5/5/46 4/4/45 41/83/43
f 6/6/47 5/5/46 41/83/43
f 7/7/48 6/6/47 41/83/43
f 8/8/49 7/7/48 41/83/43
f 9/9/50 8/8/49 41/83/43
f 10/10/51 9/9/50 41/83/43
f 11/11/52 10/10/51 41/83/43
f 12/12/53 11/11/52 41/83/43
f 13/13/54 12/12/53 41/83/43
f 14/14/55 13/13/54 41/83/43
f 15/15/56 14/14/55 41/83/43
f 16/16/57 15/15/56 41/83/43
f 17/17/58 16/16/57 41/83/43
f 18/18/59 17/17/58 41/83/43
f 19/19/60 18/18/59 41/83/43
f 20/20/61 19/19/60 41/83/43
f 1/1/42 20/20/61 41/83/43
s 3
f 21/81/62 22/80/63 42/84/64
f 22/80/63 23/79/65 42/84/64
f 23/79/65 24/78/66 42/84/64
f 24/78/66 25/77/67 42/84/64
f 25/77/67 26/76/68 42/84/64
f 26/76/68 27/75/69 42/84/64
f 27/75/69 28/74/70 42/84/64
f 28/74/70 29/73/71 42/84/64
f 29/73/71 30/72/72 42/84/64
f 30/72/72 31/71/73 42/84/64
f 31/71/73 32/70/74 42/84/64
f 32/70/74 33/69/75 42/84/64
f 33/69/75 34/68/76 42/84/64
f 34/68/76 35/67/77 42/84/64
f 35/67/77 36/66/78 42/84/64
f 36/66/78 37/65/79 42/84/64
f 37/65/79 38/64/80 42/84/64
f 38/64/80 39/63/81 42/84/64
f 39/63/81 40/82/82 42/84/64
f 40/82/82 21/81/62 42/84/64
s off
f 43/85/83 62/86/84 61/87/85 60/88/86 59/89/87 58/90/88 57/91/89 56/92/90 55/93/91 54/94/92 53/95/93 52/96/94 51/97/95 50/98/96 49/99/97 48/100/98 47/101/99 46/102/100 45/103/101 44/104/102
s 4
f 43/105/103 44/106/104 63/107/105
f 44/106/104 45/108/106 63/107/105
f 45/108/106 46/109/107 63/107/105
f 46/109/107 47/110/108 63/107/105
f 47/110/108 48/111/109 63/107/105
f 48/111/109 49/112/110 63/107/105
f 49/112/110 50/113/111 63/107/105
f 50/113/111 51/114/112 63/107/105
f 51/114/112 52/115/113 63/107/105
f 52/115/113 53/116/114 63/107/105
f 53/116/114 54/117/115 63/107/105
f 54/117/115 55/118/116 63/107/105
f 55/118/116 56/119/117 63/107/105
f 56/119/117 57/120/118 63/107/105
f 57/120/118 58/121/119 63/107/105
f 58/121/119 59/122/120 63/107/105
f 59/122/120 60/123/121 63/107/105
f 60/123/121 61/124/122 63/107/105
f 61/124/122 62/125/123 63/107/105
f 62/125/123 43/126/103 63/107/105
