# 3ds Max Wavefront OBJ Exporter v0.97b - (c)2007 guruware
# File Created: 20.05.2016 21:20:15

mtllib Forest_C_Tree_08.mtl

#
# object Forest_C_Tree_08
#

v  7.7159 0.0000 16.0699
v  15.3611 0.0000 -1.8356
v  12.8924 155.6725 -1.4799
v  8.7602 155.6725 8.1979
v  0.6945 0.0000 -14.6396
v  4.9651 155.6725 -8.4005
v  -16.0151 0.0000 -4.6475
v  -4.0664 151.0946 -2.9998
v  -11.6756 0.0000 14.3320
v  -1.7209 151.0946 7.2586
v  -4.0664 160.2505 -2.9998
v  -1.7209 160.2505 7.2586
v  -26.2649 167.0260 12.4832
v  -27.3848 166.8286 8.5458
v  -24.9171 170.6993 7.6498
v  -23.7972 170.8968 11.5873
v  -1.5791 257.0047 -5.4235
v  -4.6109 250.0550 1.6482
v  -4.5600 261.3539 1.6186
v  1.1778 250.0550 6.7169
v  7.7872 257.0047 2.7778
v  1.2099 261.3540 6.5960
v  -15.1950 269.6775 38.7547
v  -19.5986 268.9261 35.1947
v  -18.2453 275.7430 32.0747
v  -13.8524 276.4807 35.5884
v  -27.0768 304.1977 57.3099
v  -29.0629 304.0765 55.7702
v  -28.1685 306.4528 54.4295
v  -26.1824 306.5740 55.9692
v  6.0834 257.0047 -4.7253
v  2.9198 326.4007 5.8775
v  10.0665 319.4511 -0.2758
v  10.0096 330.7500 -0.2909
v  9.5639 319.4511 -7.9536
v  2.1066 326.4007 -6.5454
v  9.4557 330.7500 -7.8909
v  -1.9997 326.4007 -0.0386
v  -4.4536 380.8642 -1.0387
v  -1.7413 380.8642 -5.4077
v  -1.1365 380.8642 2.8909
v  7.6769 382.3026 3.0595
v  6.9958 382.3026 -6.2872
v  46.6880 364.9016 -22.7757
v  47.2229 364.6948 -18.5215
v  44.5260 368.7492 -17.9853
v  43.9911 368.9559 -22.2395
v  2.6802 390.3471 3.0595
v  1.9990 390.3471 -6.2872
v  -47.3813 457.6892 -1.0387
v  -44.6691 457.6892 -5.4077
v  -44.0643 457.6892 2.8910
v  -39.3020 457.6892 0.9506
v  -39.6758 457.6892 -4.1783
v  37.4755 414.8615 -6.0391
v  38.0274 415.1955 2.8114
v  30.0355 419.2626 2.8114
v  29.4837 418.9286 -6.0391
v  53.6245 467.5945 -4.1783
v  53.9410 467.7933 0.9506
v  49.2710 470.0725 0.9506
v  48.9545 469.8737 -4.1783
v  13.8473 518.9648 -89.1626
v  14.5340 560.9321 -111.0120
v  65.4661 489.0059 -76.7788
v  12.4610 434.2462 -45.0554
v  -13.9046 423.9071 -33.1147
v  -63.7810 530.4237 -83.8655
v  -31.4207 529.6229 -96.0070
v  12.4933 436.2194 -46.0827
v  89.9731 486.1533 -9.1538
v  91.5737 517.0313 68.1586
v  55.7484 436.3809 -8.9031
v  50.5009 585.0040 9.1920
v  90.4197 568.0406 -14.6127
v  -69.2821 466.8354 33.4649
v  -30.9403 497.0271 59.0989
v  -59.4473 544.8210 71.8408
v  -73.2937 497.8062 40.9933
v  -81.2880 476.6383 -14.4839
v  -91.5738 526.8185 -5.9191
v  -37.6199 555.9023 9.8666
v  -7.1697 587.5125 -16.0100
v  -38.9034 545.4100 -53.0252
v  4.3311 406.5574 -15.0472
v  -28.7091 422.7367 19.9562
v  30.6137 573.3430 94.8256
v  -13.4234 545.7953 84.2673
v  51.8521 454.5578 47.6961
v  -79.1915 553.4532 11.7589
v  -76.2828 548.5598 -52.6947
v  -0.6940 595.4554 40.6854
v  -45.5463 431.4193 -23.6531
v  -2.0094 409.1987 9.0369
v  7.1481 433.1692 42.0742
v  -29.1907 558.7488 54.3824
v  37.7488 368.3941 5.1187
v  32.3018 388.3122 -6.9412
v  19.7746 363.2513 -25.5027
v  73.9915 377.2296 -38.5557
v  72.8929 354.8324 -15.5062
v  53.4070 358.9845 -52.4058
v  64.3872 395.2703 -20.7562
v  78.7877 365.0457 -10.9072
v  44.6817 389.9076 -44.3570
v  26.4066 365.6523 -42.4374
v  50.4033 348.7120 -42.4413
v  39.2062 342.9833 -8.0787
v  63.7400 385.6173 -2.9420
v  59.9096 358.3488 6.5183
v  36.2801 343.3013 -34.4196
v  -36.6148 344.2848 89.7024
v  -26.6379 347.5085 75.4939
v  -57.4720 361.7404 62.9447
v  -23.9651 297.2899 41.3930
v  -39.7299 293.6627 49.5024
v  -45.7342 317.6075 23.3455
v  -10.6771 311.0622 62.4209
v  -32.5418 294.6380 74.4084
v  -18.4463 331.6007 33.2310
v  -47.6011 348.6351 32.4250
v  -17.5721 344.6201 57.0915
v  -58.8431 320.8755 35.2288
v  -69.7608 333.6388 74.5041
v  -13.7717 315.8214 83.3784
v  -41.9171 318.7669 93.3733
v  -46.6880 299.0463 69.1758
v  -56.1868 321.6823 83.9612
v  -10.3867 328.2125 51.2062
v  -65.1472 339.1893 43.6858
# 130 vertices

vn 0.9196 -0.3926 0.0137
vn 0.6576 0.7533 0.0121
vn -0.5191 0.8533 0.0494
vn -0.9721 -0.2223 0.0745
vn -0.0970 -0.9939 0.0519
vn -0.5132 0.8583 -0.0000
vn -0.0893 -0.9960 0.0000
vn -0.5127 -0.1370 -0.8475
vn -0.4388 0.8983 0.0213
vn 0.2151 -0.9762 0.0264
vn 0.4066 0.1119 0.9068
vn -0.9202 0.3914 0.0031
vn 0.5059 -0.8626 0.0078
vn -0.2655 -0.3904 -0.8815
vn -0.9127 0.4087 -0.0003
vn 0.8922 -0.4514 0.0142
vn 0.2223 0.3452 0.9118
vn -0.4803 -0.6937 -0.5368
vn -0.9036 0.4282 0.0131
vn 0.8701 -0.4920 0.0295
vn 0.4349 0.6541 0.6189
vn -0.9991 0.0411 -0.0039
vn -0.3422 -0.9395 0.0167
vn 0.7741 -0.6317 0.0412
vn 0.8310 0.5549 0.0381
vn -0.2683 0.9633 0.0110
vn 0.6549 -0.7557 0.0043
vn -0.1822 0.9833 0.0037
vn -0.8463 0.5306 -0.0483
vn -0.7668 -0.6415 -0.0224
vn 0.3473 -0.9376 0.0177
vn 0.9961 0.0726 0.0498
vn -0.1430 0.9896 0.0171
vn 0.7574 0.0771 -0.6484
vn 0.4082 -0.9119 0.0423
vn -0.3494 0.9366 -0.0273
vn -0.7221 -0.0783 0.6873
vn -0.7133 -0.6999 0.0362
vn 0.5907 -0.8069 0.0054
vn 0.9882 0.1436 -0.0528
vn -0.0605 0.9977 -0.0296
vn -0.8815 0.4711 0.0312
vn -0.8043 -0.2007 0.5592
vn -0.0174 -0.9998 -0.0108
vn -0.0908 0.9943 -0.0564
vn -0.7675 0.4765 -0.4289
vn -0.7028 -0.5932 -0.3927
vn 0.1142 -0.9901 0.0817
vn 0.8478 0.0618 0.5266
vn 0.0148 0.9996 0.0233
vn 0.7320 0.0371 -0.6803
vn 0.0040 -1.0000 0.0043
vn 0.0040 1.0000 0.0043
vn -0.7232 -0.0363 0.6897
vn 0.9555 0.0483 -0.2909
vn 0.0154 -0.9994 0.0307
vn 0.0153 0.9994 0.0306
vn -0.9337 -0.0445 0.3552
vn -0.0546 0.8860 -0.4604
vn -0.2484 0.8138 -0.5253
vn 0.0253 0.8865 -0.4620
vn 0.8071 -0.2045 -0.5539
vn 0.2424 0.2597 0.9348
vn -0.3706 -0.8510 -0.3720
vn -0.9316 0.3383 -0.1332
vn -0.7541 0.0931 0.6502
vn 0.9998 0.0180 -0.0067
vn 0.5580 -0.4297 0.7099
vn -0.5792 0.1791 -0.7953
vn 0.7835 0.3067 -0.5403
vn -0.0215 0.6811 -0.7319
vn -0.1817 -0.9826 -0.0374
vn 0.0791 -0.9314 -0.3554
vn 0.7822 -0.2387 -0.5755
vn -0.9529 -0.2179 -0.2111
vn -0.9449 -0.3203 0.0681
vn -0.9389 0.3378 -0.0665
vn 0.7139 -0.2546 0.6523
vn 0.3121 -0.1990 0.9290
vn -0.3560 0.7679 -0.5326
vn -0.2561 0.0927 -0.9622
vn -0.1475 -0.6073 -0.7807
vn -0.4598 0.0237 -0.8877
vn -0.5830 0.3397 0.7381
vn -0.6026 0.3655 0.7094
vn -0.8843 0.0749 0.4608
vn -0.8938 -0.4291 0.1307
vn 0.1083 0.1501 0.9827
vn 0.1448 0.2358 0.9610
vn -0.7453 -0.0388 0.6656
vn -0.5344 -0.5626 0.6308
vn 0.7535 0.6110 0.2427
vn 0.9394 0.3416 -0.0279
vn 0.4345 -0.3622 -0.8246
vn 0.4701 -0.2176 -0.8554
vn 0.4732 0.5248 -0.7076
vn 0.4566 0.5034 -0.7336
vn -0.7130 0.5330 -0.4555
vn -0.7762 -0.0662 -0.6270
vn -0.7081 -0.1354 -0.6930
vn -0.3242 -0.7789 -0.5369
vn -0.2735 -0.8763 -0.3967
vn 0.0014 -0.9665 -0.2569
vn 0.0071 -0.9299 -0.3677
vn -0.0240 0.4212 0.9066
vn 0.0054 0.1199 0.9928
vn -0.0509 -0.1584 0.9861
vn -0.4090 -0.0191 0.9124
vn -0.1416 -0.4556 0.8788
vn -0.2338 -0.8957 -0.3783
vn -0.0963 -0.8982 -0.4289
vn -0.8653 -0.4971 0.0644
vn 0.7426 0.4482 -0.4976
vn 0.8972 -0.0382 0.4399
vn -0.7851 0.2353 0.5729
vn 0.6723 0.4234 -0.6073
vn -0.7944 -0.5192 -0.3152
vn 0.6344 -0.7535 0.1723
vn 0.3792 -0.3597 -0.8526
vn -0.3076 0.9384 0.1575
vn -0.4046 0.7127 -0.5730
vn -0.2254 0.0331 0.9737
vn -0.0664 -0.8615 0.5034
vn 0.3157 0.8927 0.3215
vn 0.4236 0.5219 0.7404
vn -0.7514 -0.0756 -0.6555
vn 0.3209 0.0531 -0.9456
vn -0.7893 0.3777 -0.4841
vn -0.7917 0.2298 0.5660
vn 0.0836 -0.9450 0.3161
vn -0.2607 -0.8506 -0.4567
vn 0.6504 -0.4777 -0.5905
vn 0.8768 0.3130 -0.3651
vn -0.3104 0.8429 -0.4395
vn 0.3332 0.0484 -0.9416
vn 0.8221 -0.2940 0.4875
vn 0.0147 -0.4768 0.8789
vn 0.2552 -0.3808 0.8887
vn -0.1607 0.6461 -0.7461
vn 0.6328 -0.1027 -0.7674
vn 0.4626 0.4377 0.7710
vn -0.5887 0.4682 -0.6590
vn -0.4885 -0.7109 0.5060
vn 0.2294 -0.8066 -0.5448
vn -0.7457 -0.3696 -0.5543
vn 0.1932 0.9385 0.2862
vn -0.6353 0.7507 0.1814
vn 0.8844 -0.3973 0.2448
vn 0.6921 -0.5826 0.4260
vn 0.4488 0.8504 -0.2745
vn 0.8840 0.3843 -0.2662
vn -0.9243 0.0708 0.3751
vn -0.8345 0.0538 -0.5483
vn -0.6327 0.4692 0.6160
vn 0.3450 0.2739 0.8977
vn 0.3399 -0.9383 0.0643
vn -0.4559 -0.8731 0.1730
vn -0.4331 -0.6192 -0.6550
vn 0.2128 0.0232 -0.9768
vn -0.5928 0.7892 0.1604
vn -0.9523 0.1861 -0.2419
vn 0.6666 -0.2573 -0.6996
vn 0.9212 -0.0484 0.3861
vn 0.4004 -0.0537 0.9148
vn -0.7850 0.1109 -0.6095
vn -0.3398 -0.1345 -0.9308
vn -0.5196 -0.5990 -0.6093
vn -0.5041 -0.8339 0.2247
vn 0.8357 0.2863 0.4687
vn 0.8672 0.4346 -0.2429
# 170 vertex normals

vt 0.4178 0.1826 0.0000
vt 0.4243 0.1828 0.0000
vt 0.4223 0.2349 0.0000
vt 0.4189 0.2348 0.0000
vt 0.4308 0.1831 0.0000
vt 0.4258 0.2351 0.0000
vt 0.4373 0.1837 0.0000
vt 0.4294 0.2339 0.0000
vt 0.4438 0.1849 0.0000
vt 0.4329 0.2346 0.0000
vt 0.4153 0.2334 0.0000
vt 0.4113 0.1827 0.0000
vt 0.4291 0.2370 0.0000
vt 0.4154 0.2364 0.0000
vt 0.3961 0.1700 0.0000
vt 0.3992 0.1687 0.0000
vt 0.4028 0.1775 0.0000
vt 0.4016 0.1780 0.0000
vt 0.4053 0.1685 0.0000
vt 0.4080 0.1673 0.0000
vt 0.4068 0.1768 0.0000
vt 0.4054 0.1766 0.0000
vt 0.4021 0.1692 0.0000
vt 0.4041 0.1769 0.0000
vt 0.4248 0.2682 0.0000
vt 0.4274 0.2662 0.0000
vt 0.4270 0.2697 0.0000
vt 0.4175 0.2657 0.0000
vt 0.4199 0.2679 0.0000
vt 0.4175 0.2692 0.0000
vt 0.4856 0.2726 0.0000
vt 0.4870 0.2852 0.0000
vt 0.4852 0.2850 0.0000
vt 0.4832 0.2723 0.0000
vt 0.4911 0.2732 0.0000
vt 0.4944 0.2718 0.0000
vt 0.4936 0.2846 0.0000
vt 0.4912 0.2850 0.0000
vt 0.4889 0.2739 0.0000
vt 0.4894 0.2855 0.0000
vt 0.4892 0.2977 0.0000
vt 0.4884 0.2978 0.0000
vt 0.4915 0.2975 0.0000
vt 0.4907 0.2978 0.0000
vt 0.4900 0.2979 0.0000
vt 0.4325 0.2373 0.0000
vt 0.4150 0.2658 0.0000
vt 0.4224 0.2681 0.0000
vt 0.4164 0.2883 0.0000
vt 0.4192 0.2865 0.0000
vt 0.4190 0.2896 0.0000
vt 0.4213 0.2867 0.0000
vt 0.4234 0.2888 0.0000
vt 0.4211 0.2897 0.0000
vt 0.4255 0.2889 0.0000
vt 0.4235 0.3041 0.0000
vt 0.4221 0.3037 0.0000
vt 0.4142 0.2882 0.0000
vt 0.4153 0.3032 0.0000
vt 0.4139 0.3035 0.0000
vt 0.4176 0.3031 0.0000
vt 0.4199 0.3033 0.0000
vt 0.4066 0.2881 0.0000
vt 0.4082 0.3072 0.0000
vt 0.4069 0.3071 0.0000
vt 0.4042 0.2878 0.0000
vt 0.4022 0.2908 0.0000
vt 0.4054 0.3076 0.0000
vt 0.4093 0.2906 0.0000
vt 0.4098 0.3075 0.0000
vt 0.4116 0.2900 0.0000
vt 0.4111 0.3072 0.0000
vt 0.4153 0.2690 0.0000
vt 0.4057 0.1781 0.0000
vt 0.4044 0.1783 0.0000
vt 0.4172 0.3052 0.0000
vt 0.4199 0.3054 0.0000
vt 0.4204 0.3287 0.0000
vt 0.4191 0.3282 0.0000
vt 0.4151 0.3278 0.0000
vt 0.4137 0.3283 0.0000
vt 0.4164 0.3272 0.0000
vt 0.4179 0.3273 0.0000
vt 0.3924 0.2591 0.0000
vt 0.3955 0.2590 0.0000
vt 0.3952 0.2728 0.0000
vt 0.3925 0.2730 0.0000
vt 0.3895 0.2600 0.0000
vt 0.3898 0.2729 0.0000
vt 0.3984 0.2599 0.0000
vt 0.3979 0.2727 0.0000
vt 0.4015 0.2602 0.0000
vt 0.4007 0.2731 0.0000
vt 0.3949 0.2900 0.0000
vt 0.3932 0.2901 0.0000
vt 0.3915 0.2904 0.0000
vt 0.3966 0.2903 0.0000
vt 0.3982 0.2905 0.0000
vt 0.8779 0.7293 0.0000
vt 0.8822 0.7210 0.0000
vt 0.8930 0.7438 0.0000
vt 0.8719 0.7549 0.0000
vt 0.8626 0.7537 0.0000
vt 0.8644 0.7070 0.0000
vt 0.8689 0.7162 0.0000
vt 0.8700 0.7545 0.0000
vt 0.9175 0.7523 0.0000
vt 0.9383 0.7294 0.0000
vt 0.9429 0.7643 0.0000
vt 0.9168 0.7131 0.0000
vt 0.9151 0.7256 0.0000
vt 0.9887 0.7360 0.0000
vt 0.9736 0.7251 0.0000
vt 0.9798 0.7076 0.0000
vt 0.9886 0.7250 0.0000
vt 0.8676 0.6755 0.0000
vt 0.8806 0.6819 0.0000
vt 0.9004 0.6903 0.0000
vt 0.9022 0.7028 0.0000
vt 0.8807 0.7019 0.0000
vt 0.8667 0.7646 0.0000
vt 0.8505 0.7667 0.0000
vt 0.8886 0.7680 0.0000
vt 0.9390 0.6998 0.0000
vt 0.9328 0.6887 0.0000
vt 0.9403 0.6997 0.0000
vt 0.9516 0.7439 0.0000
vt 0.8739 0.6598 0.0000
vt 0.8877 0.6636 0.0000
vt 0.9128 0.6726 0.0000
vt 0.8919 0.6825 0.0000
vt 0.8750 0.6966 0.0000
vt 0.9180 0.6973 0.0000
vt 0.8528 0.7486 0.0000
vt 0.9681 0.7630 0.0000
vt 0.9649 0.7495 0.0000
vt 0.9777 0.7548 0.0000
vt 0.8631 0.7708 0.0000
vt 0.9170 0.6847 0.0000
vt 0.8511 0.6682 0.0000
vt 0.8547 0.6528 0.0000
vt 0.9625 0.7075 0.0000
vt 0.3896 0.8830 0.0000
vt 0.3948 0.8811 0.0000
vt 0.4015 0.8915 0.0000
vt 0.4094 0.8716 0.0000
vt 0.4214 0.8732 0.0000
vt 0.4102 0.8804 0.0000
vt 0.3990 0.8685 0.0000
vt 0.4156 0.8653 0.0000
vt 0.4028 0.8776 0.0000
vt 0.4040 0.8874 0.0000
vt 0.4130 0.8828 0.0000
vt 0.3851 0.8898 0.0000
vt 0.3915 0.8719 0.0000
vt 0.3847 0.8788 0.0000
vt 0.3828 0.8697 0.0000
vt 0.3777 0.8758 0.0000
vt 0.4118 0.8875 0.0000
vt 0.4189 0.8918 0.0000
vt 0.2878 0.9744 0.0000
vt 0.2916 0.9745 0.0000
vt 0.2860 0.9859 0.0000
vt 0.2610 0.9792 0.0000
vt 0.2658 0.9804 0.0000
vt 0.2713 0.9947 0.0000
vt 0.2678 0.9648 0.0000
vt 0.2705 0.9722 0.0000
vt 0.2992 0.9852 0.0000
vt 0.2876 0.9938 0.0000
vt 0.2959 0.9795 0.0000
vt 0.2743 0.9923 0.0000
vt 0.2800 0.9817 0.0000
vt 0.2831 0.9640 0.0000
vt 0.2808 0.9728 0.0000
vt 0.2717 0.9770 0.0000
vt 0.2794 0.9772 0.0000
vt 0.3034 0.9944 0.0000
vt 0.3005 0.9773 0.0000
vt 0.3008 0.9682 0.0000
vt 0.3110 0.9801 0.0000
vt 0.2797 0.9906 0.0000
# 182 texture coords

g Forest_C_Tree_08
usemtl ForestPack_Trees
s off
f 1/1/1 2/2/1 3/3/1 4/4/1 
f 5/5/2 6/6/2 3/3/2 2/2/2 
f 5/5/3 7/7/3 8/8/3 6/6/3 
f 9/9/4 10/10/4 8/8/4 7/7/4 
f 1/1/5 4/4/5 10/11/5 9/12/5 
f 6/6/6 8/8/6 11/13/6 
f 10/11/7 4/4/7 12/14/7 
f 8/15/8 10/16/8 13/17/8 14/18/8 
f 11/19/9 8/20/9 14/21/9 15/22/9 
f 10/16/10 12/23/10 16/24/10 13/17/10 
f 12/23/11 11/19/11 15/22/11 16/24/11 
f 17/25/12 18/26/12 19/27/12 
f 20/28/13 21/29/13 22/30/13 
f 20/31/14 23/32/14 24/33/14 18/34/14 
f 19/35/15 18/36/15 24/37/15 25/38/15 
f 22/39/16 26/40/16 23/32/16 20/31/16 
f 22/39/17 19/35/17 25/38/17 26/40/17 
f 23/32/18 27/41/18 28/42/18 24/33/18 
f 28/43/19 29/44/19 25/38/19 24/37/19 
f 26/40/20 30/45/20 27/41/20 23/32/20 
f 29/44/21 30/45/21 26/40/21 25/38/21 
f 11/13/22 12/46/22 18/26/22 17/25/22 
f 12/14/23 4/4/23 20/28/23 18/47/23 
f 4/4/24 3/3/24 21/29/24 20/28/24 
f 3/3/25 6/6/25 31/48/25 21/29/25 
f 6/6/26 11/13/26 17/25/26 31/48/26 
f 32/49/27 33/50/27 34/51/27 
f 35/52/28 36/53/28 37/54/28 
f 36/53/29 38/55/29 39/56/29 40/57/29 
f 38/58/30 32/49/30 41/59/30 39/60/30 
f 32/49/31 34/51/31 42/61/31 41/59/31 
f 34/51/32 37/54/32 43/62/32 42/61/32 
f 37/54/33 36/53/33 40/57/33 43/62/33 
f 35/63/34 44/64/34 45/65/34 33/66/34 
f 34/67/35 33/66/35 45/65/35 46/68/35 
f 37/69/36 47/70/36 44/64/36 35/63/36 
f 37/69/37 34/71/37 46/72/37 47/70/37 
f 19/73/38 22/30/38 32/49/38 38/58/38 
f 22/30/39 21/29/39 33/50/39 32/49/39 
f 21/29/40 31/48/40 35/52/40 33/50/40 
f 31/48/41 17/25/41 36/53/41 35/52/41 
f 17/25/42 19/27/42 38/55/42 36/53/42 
f 16/24/43 15/22/43 14/74/43 13/75/43 
f 41/59/44 42/61/44 48/76/44 
f 43/62/45 40/57/45 49/77/45 
f 39/56/46 50/78/46 51/79/46 40/57/46 
f 52/80/47 50/81/47 39/60/47 41/59/47 
f 53/82/48 52/80/48 41/59/48 48/76/48 
f 54/83/49 53/82/49 48/76/49 49/77/49 
f 40/57/50 51/79/50 54/83/50 49/77/50 
f 42/84/51 43/85/51 55/86/51 56/87/51 
f 48/88/52 42/84/52 56/87/52 57/89/52 
f 43/85/53 49/90/53 58/91/53 55/86/53 
f 49/90/54 48/92/54 57/93/54 58/91/54 
f 56/87/55 55/86/55 59/94/55 60/95/55 
f 57/89/56 56/87/56 60/95/56 61/96/56 
f 55/86/57 58/91/57 62/97/57 59/94/57 
f 58/91/58 57/93/58 61/98/58 62/97/58 
f 63/99/59 64/100/59 65/101/59 
f 66/102/60 67/103/60 68/104/60 69/105/60 
f 66/102/61 69/105/61 70/106/61 
f 71/107/62 72/108/62 73/109/62 
f 74/110/63 75/111/63 64/100/63 
f 76/112/64 77/113/64 78/114/64 79/115/64 
f 80/116/65 81/117/65 68/104/65 
f 82/118/66 83/119/66 84/120/66 
f 75/111/67 72/108/67 71/107/67 
f 74/110/68 72/108/68 75/111/68 
f 85/121/69 86/122/69 67/103/69 
f 71/107/70 73/123/70 65/101/70 
f 85/121/71 67/103/71 66/102/71 
f 87/124/72 88/125/72 87/126/72 
f 87/126/73 89/127/73 72/108/73 87/124/73 
f 73/109/74 72/108/74 89/127/74 
f 80/116/75 76/128/75 79/129/75 81/117/75 
f 78/130/76 90/131/76 79/129/76 
f 68/104/77 81/117/77 91/132/77 
f 69/105/61 64/100/61 63/99/61 
f 87/124/78 72/108/78 74/110/78 
f 87/124/79 74/110/79 92/133/79 
f 68/104/80 67/103/80 93/134/80 
f 86/122/81 93/134/81 67/103/81 
f 94/135/82 95/136/82 86/137/82 
f 85/121/83 94/138/83 86/122/83 
f 64/100/84 84/120/84 83/119/84 
f 84/120/85 64/100/85 69/105/85 
f 90/131/86 91/132/86 81/117/86 
f 79/129/87 90/131/87 81/117/87 
f 83/119/88 92/133/88 74/110/88 
f 83/119/89 74/110/89 64/100/89 
f 82/118/90 96/139/90 92/133/90 83/119/90 
f 96/139/91 88/125/91 87/124/91 92/133/91 
f 64/100/92 75/111/92 65/101/92 
f 65/101/93 75/111/93 71/107/93 
f 89/127/94 95/136/94 94/135/94 73/109/94 
f 73/123/95 94/138/95 85/121/95 
f 73/123/96 85/121/96 66/102/96 
f 73/123/97 66/102/97 65/101/97 
f 68/104/98 93/140/98 80/116/98 
f 80/116/99 93/140/99 76/128/99 
f 76/128/100 93/140/100 86/141/100 
f 76/112/101 86/137/101 95/136/101 
f 76/112/102 95/136/102 77/113/102 
f 77/113/103 95/136/103 89/127/103 
f 89/127/104 87/126/104 88/142/104 
f 65/101/59 66/102/59 70/106/59 63/99/59 
f 63/99/61 70/106/61 69/105/61 
f 69/105/105 68/104/105 91/132/105 84/120/105 
f 90/131/106 82/118/106 84/120/106 91/132/106 
f 82/118/107 90/131/107 78/130/107 
f 82/118/108 78/130/108 96/139/108 
f 96/139/109 78/130/109 88/125/109 
f 88/142/110 78/114/110 77/113/110 
f 88/142/111 77/113/111 89/127/111 
f 97/143/112 98/144/112 99/145/112 
f 100/146/113 101/147/113 102/148/113 
f 100/146/114 103/149/114 104/150/114 
f 105/151/115 106/152/115 98/144/115 
f 107/153/116 102/148/116 101/147/116 
f 108/154/117 97/143/117 99/145/117 
f 109/155/118 110/156/118 104/157/118 
f 101/158/119 110/156/119 108/154/119 
f 102/148/120 106/152/120 105/151/120 
f 107/153/121 106/152/121 102/148/121 
f 105/151/122 98/144/122 103/149/122 
f 98/144/123 97/143/123 109/155/123 
f 102/148/124 105/151/124 100/146/124 
f 105/151/125 103/149/125 100/146/125 
f 111/159/126 108/160/126 99/145/126 
f 108/160/127 107/153/127 101/147/127 
f 99/145/128 106/152/128 111/159/128 
f 98/144/129 106/152/129 99/145/129 
f 110/156/130 109/155/130 97/143/130 
f 108/154/131 110/156/131 97/143/131 
f 104/157/132 110/156/132 101/158/132 
f 100/146/133 104/150/133 101/147/133 
f 111/159/134 106/152/134 107/153/134 
f 108/160/135 111/159/135 107/153/135 
f 104/157/136 103/149/136 109/155/136 
f 98/144/137 109/155/137 103/149/137 
f 112/161/138 113/162/138 114/163/138 
f 115/164/139 116/165/139 117/166/139 
f 115/164/140 118/167/140 119/168/140 
f 120/169/141 121/170/141 122/171/141 
f 123/172/142 117/166/142 116/165/142 
f 124/173/143 112/161/143 114/163/143 
f 125/174/144 126/175/144 119/168/144 
f 127/176/145 128/177/145 124/173/145 
f 117/178/146 121/170/146 120/169/146 
f 123/172/147 121/170/147 117/166/147 
f 129/179/148 113/162/148 118/180/148 
f 113/162/149 112/161/149 125/174/149 
f 117/178/150 120/169/150 115/181/150 
f 129/179/151 118/180/151 115/181/151 
f 130/182/152 124/173/152 114/163/152 
f 124/173/153 123/172/153 127/176/153 
f 114/163/154 121/170/154 130/182/154 
f 122/171/155 121/170/155 114/163/155 
f 126/175/156 125/174/156 112/161/156 
f 124/173/157 128/177/157 112/161/157 
f 119/168/158 126/175/158 127/176/158 
f 115/164/159 119/168/159 116/165/159 
f 130/182/160 121/170/160 123/172/160 
f 124/173/161 130/182/161 123/172/161 
f 119/168/162 118/167/162 125/174/162 
f 113/162/163 125/174/163 118/180/163 
f 122/171/164 114/163/164 113/162/164 
f 129/179/148 122/171/148 113/162/148 
f 123/172/165 116/165/165 127/176/165 
f 119/168/166 127/176/166 116/165/166 
f 128/177/167 127/176/167 126/175/167 
f 112/161/168 128/177/168 126/175/168 
f 129/179/169 120/169/169 122/171/169 
f 129/179/170 115/181/170 120/169/170 
# 60 polygons - 114 triangles

