# 3ds Max Wavefront OBJ Exporter v0.97b - (c)2007 guruware
# File Created: 20.05.2016 21:20:15

mtllib Forest_C_Tree_15.mtl

#
# object Forest_C_Tree_15
#

v  -9.0358 0.0000 25.5019
v  37.5123 0.0000 6.5720
v  35.7422 92.4992 9.9709
v  -1.5335 90.7713 18.4084
v  16.6187 0.0000 -19.7137
v  31.3241 94.8333 -8.9410
v  -42.8424 0.0000 -17.0292
v  -8.6822 94.5481 -12.1918
v  -54.3477 0.0000 10.9155
v  -24.6392 92.0378 4.7111
v  -9.0048 153.1786 1.3187
v  -8.8761 161.0245 -8.6714
v  20.1300 164.2251 13.4847
v  37.0258 157.4365 -5.8619
v  26.7623 163.7526 -13.5380
v  -19.1420 209.5368 -1.2734
v  4.9031 213.4840 3.6253
v  -4.4681 228.4499 3.6253
v  14.9180 219.7550 -8.3507
v  1.5291 221.7881 -15.0520
v  5.5468 234.7210 -8.3507
v  28.4434 273.5984 2.9584
v  24.5825 273.0353 14.5653
v  17.9150 283.5934 11.0355
v  21.7759 284.1564 -0.5714
v  -50.8105 258.9415 -14.8237
v  -58.0522 245.6700 -9.4928
v  -58.2344 266.0151 -8.8992
v  -54.4899 245.6770 -2.0024
v  -45.0467 258.9530 -2.7039
v  -54.6519 266.0272 -1.5074
v  -77.6285 254.8458 7.5272
v  -82.2808 254.1150 -0.5746
v  -78.8479 272.9044 -2.8938
v  -74.1850 273.6081 5.1155
v  -43.5336 259.3545 -10.8713
v  -19.2257 209.4845 -11.7472
v  -97.6774 284.9950 16.5144
v  -129.2449 346.7216 18.0001
v  -132.5458 346.9261 12.4760
v  -102.7859 283.4636 9.3157
v  -126.1701 355.1976 9.0401
v  -95.3082 296.2351 3.6433
v  -90.2040 297.7026 10.7769
v  -122.8709 354.9668 14.5375
v  -50.5957 313.7241 -9.4030
v  -44.9212 306.7716 -14.3135
v  -40.1768 305.8775 -4.2030
v  -47.6468 313.1726 -3.2363
v  -38.9313 305.9750 -10.9986
v  83.3253 468.9545 16.8408
v  88.7969 466.6037 6.4655
v  96.3672 545.4841 10.1377
v  94.9343 545.9368 16.6432
v  73.7968 474.2547 10.6150
v  86.2449 547.7379 12.5454
v  79.2683 471.9040 0.2396
v  87.6778 547.2852 6.0400
v  106.2728 434.2188 8.2808
v  109.5460 434.5637 -3.2204
v  167.1213 469.7625 12.2529
v  164.6245 468.9796 18.3955
v  102.0679 446.0194 7.4380
v  162.7626 478.4173 16.6615
v  105.3412 446.3645 -4.0632
v  165.2594 479.2001 10.5190
v  -12.0290 363.5706 -9.9067
v  -8.1038 356.7391 -13.8034
v  -4.3788 354.9395 -5.7022
v  -9.7138 362.4554 -4.9653
v  -3.4010 354.7328 -11.1259
v  83.9430 305.9963 20.6019
v  80.7302 303.7425 26.0035
v  75.6661 311.8307 23.8870
v  78.8790 314.0844 18.4855
v  -148.2579 328.3920 84.9715
v  -95.5726 449.4917 96.1197
v  -209.5494 405.7636 33.6428
v  -67.7884 357.3348 78.0953
v  -27.3162 394.5402 118.8850
v  -156.5060 308.9731 12.8321
v  -217.7358 356.3904 -54.7101
v  -121.7165 340.5025 -72.1322
v  -142.5650 513.4471 12.9029
v  99.4330 479.7987 -103.5293
v  101.0942 279.8230 -69.6215
v  26.2677 350.2827 -132.5720
v  112.6358 265.6523 9.2759
v  166.1311 293.3005 -9.0394
v  129.6746 310.2999 80.8752
v  108.7031 393.5766 62.2122
v  139.7262 409.5251 -8.9833
v  95.7923 481.5935 9.8385
v  -111.7941 328.6642 17.5986
v  -59.9393 360.5609 -133.4389
v  27.0922 337.2259 -9.7309
v  -127.0196 505.8401 -61.7267
v  3.1024 532.0462 -97.2935
v  -18.1639 450.7866 -137.4039
v  -138.7010 422.0953 -111.4085
v  0.7197 476.6226 127.9247
v  -25.6606 555.0903 10.9683
v  42.1645 366.4202 105.7522
v  17.9244 335.6851 67.4920
v  76.9918 378.2488 100.0966
v  38.4475 535.0723 54.4362
v  99.6661 548.5686 79.1233
v  30.6687 587.2512 27.4720
v  96.0521 507.6042 56.0442
v  116.8486 508.5929 90.3217
v  37.2058 539.6884 3.1420
v  25.2647 581.9412 -38.6932
v  64.7231 558.6105 -47.7875
v  98.1068 597.1625 29.7148
v  212.1087 552.0014 -39.2292
v  174.8373 446.3279 -46.9408
v  160.1472 496.2332 -70.2835
v  170.7667 426.1352 4.5270
v  200.1521 429.5321 -1.4003
v  180.4367 430.2510 59.2777
v  208.7084 482.4696 73.2254
v  217.7360 482.8623 14.6099
v  201.7009 536.2331 36.7105
v  59.5124 538.0611 11.1649
v  116.3219 535.6085 -71.7272
v  109.3878 602.2283 -20.4952
v  171.9665 598.1826 -43.9594
v  151.0392 565.0554 -60.2201
v  74.8376 597.8204 -50.9591
v  143.1548 535.4738 108.7667
v  155.7885 591.0307 39.7341
v  151.3949 467.3551 79.1808
v  138.5071 465.3738 48.2596
v  168.8844 466.0625 78.6886
# 134 vertices

vn 0.3102 -0.9506 0.0095
vn 0.8718 0.4894 -0.0232
vn 0.0054 0.9967 0.0808
vn -0.8258 0.4901 0.2791
vn -0.3758 -0.9156 0.1431
vn -0.8708 0.4801 0.1058
vn -0.4634 -0.8672 0.1820
vn 0.4598 -0.8862 0.0567
vn 0.8665 0.4962 -0.0545
vn -0.0210 0.9997 -0.0087
vn -0.1805 -0.9771 -0.1130
vn 0.4632 0.8375 0.2900
vn 0.8524 -0.4061 -0.3293
vn -0.2868 -0.9568 -0.0479
vn 0.3315 0.9402 0.0783
vn -0.8440 0.3899 0.3683
vn -0.6134 0.7896 0.0175
vn 0.1066 -0.9940 -0.0233
vn -0.2763 -0.1901 -0.9421
vn -0.3204 0.9472 -0.0152
vn 0.3593 -0.9331 0.0156
vn 0.2785 0.1928 0.9409
vn 0.4200 -0.4928 0.7621
vn 0.2862 0.8522 0.4381
vn -0.1549 0.9749 -0.1596
vn -0.6895 -0.1423 -0.7101
vn -0.1241 -0.9916 -0.0363
vn -0.7500 -0.5361 -0.3873
vn -0.3960 0.9086 -0.1326
vn 0.3686 -0.9160 0.1586
vn 0.7276 0.5270 0.4392
vn 0.5585 0.8068 0.1928
vn -0.1212 0.9891 -0.0831
vn -0.9778 0.0765 -0.1952
vn -0.3146 -0.9485 0.0363
vn 0.7236 -0.6165 0.3103
vn -0.5814 0.8095 0.0824
vn 0.1392 -0.9901 0.0164
vn -0.8888 -0.4340 0.1474
vn 0.9794 -0.1774 -0.0961
vn 0.4787 0.8766 -0.0496
vn -0.6374 -0.4941 -0.5912
vn -0.4740 0.8786 -0.0586
vn 0.4622 -0.8841 0.0686
vn 0.6488 0.5006 0.5731
vn 0.9116 -0.3929 -0.1209
vn -0.4725 -0.8789 0.0654
vn 0.4937 0.8696 0.0023
vn -0.9066 0.3953 0.1476
vn 0.4963 -0.1072 -0.8615
vn -0.1946 -0.9788 0.0632
vn 0.2692 0.9623 -0.0398
vn -0.4593 0.0937 0.8833
vn -0.3854 0.8756 0.2911
vn 0.0911 -0.9952 -0.0357
vn -0.7131 -0.4220 0.5598
vn 0.8000 -0.1507 -0.5808
vn 0.4071 0.8644 -0.2950
vn 0.4805 -0.0549 -0.8753
vn -0.2668 -0.9560 0.1216
vn 0.3430 0.9369 -0.0679
vn -0.4435 0.0361 0.8955
vn -0.5184 -0.8422 0.1480
vn 0.3380 -0.4288 -0.8378
vn -0.2216 0.4177 -0.8811
vn -0.5561 -0.6806 0.4770
vn 0.5612 0.8168 -0.1338
vn 0.5225 -0.3581 -0.7738
vn 0.8133 -0.4397 0.3810
vn -0.7851 -0.3560 -0.5068
vn -0.8492 0.1955 0.4906
vn 0.5389 -0.0072 -0.8423
vn -0.1167 0.1042 -0.9877
vn -0.8314 -0.2311 -0.5053
vn 0.3466 -0.1838 -0.9198
vn -0.3084 0.8084 0.5015
vn -0.7330 0.5353 0.4198
vn -0.2317 0.8568 -0.4607
vn 0.3883 0.2176 -0.8955
vn 0.8994 0.4322 -0.0658
vn 0.9032 -0.3101 0.2969
vn -0.2989 -0.9540 0.0240
vn -0.8375 0.2252 0.4978
vn 0.4728 0.0615 0.8790
vn -0.2443 -0.6094 -0.7543
vn -0.2336 0.0298 -0.9719
vn -0.5499 0.7021 -0.4524
vn 0.1701 0.1474 -0.9743
vn -0.3177 -0.6243 0.7137
vn 0.6594 -0.6809 0.3187
vn 0.8810 -0.4287 0.2000
vn 0.6571 0.7388 0.1497
vn 0.4122 0.1638 -0.8963
vn 0.3769 -0.2003 -0.9043
vn 0.8559 -0.0193 0.5167
vn 0.5177 -0.0031 0.8555
vn -0.1301 -0.7355 -0.6649
vn 0.1602 0.9011 0.4029
vn 0.3212 -0.7924 0.5186
vn 0.1545 -0.9782 -0.1387
vn -0.2898 0.2261 0.9300
vn 0.6882 -0.2908 0.6647
vn -0.2243 0.9726 0.0611
vn 0.0046 0.9989 -0.0460
vn -0.6433 0.0635 -0.7630
vn -0.1054 -0.6625 -0.7416
vn -0.6273 0.0899 -0.7736
vn 0.1990 -0.9725 -0.1208
vn 0.2604 0.9630 0.0688
vn -0.4164 -0.8315 0.3676
vn -0.4196 -0.2795 -0.8636
vn -0.5188 0.5296 -0.6710
vn -0.1268 -0.6976 0.7052
vn 0.6321 0.7565 -0.1678
vn 0.1251 -0.0524 -0.9908
vn 0.9623 -0.1497 0.2271
vn -0.9786 -0.0946 -0.1829
vn -0.1429 0.0676 0.9874
vn -0.4127 0.2570 -0.8738
vn -0.9898 -0.0112 -0.1418
vn -0.4097 0.2598 -0.8744
vn 0.0446 0.6573 0.7523
vn -0.2644 -0.1623 0.9507
vn -0.2347 0.9719 -0.0181
vn 0.0345 0.3626 -0.9313
vn 0.8577 0.4372 -0.2706
vn 0.8144 -0.2707 -0.5132
vn -0.4601 -0.8864 0.0505
vn -0.2430 -0.0432 0.9691
vn 0.7299 -0.1970 0.6546
vn -0.6597 -0.2247 -0.7171
vn -0.6707 0.2784 -0.6875
vn -0.4090 0.9120 0.0317
vn -0.5064 0.3234 -0.7994
vn -0.1121 -0.6503 0.7514
vn 0.2516 -0.9186 -0.3048
vn 0.9270 -0.1404 -0.3478
vn 0.8471 0.5167 -0.1242
vn 0.0480 0.3250 -0.9445
vn -0.0407 0.0886 -0.9952
vn 0.9604 -0.1764 0.2155
vn 0.7520 -0.2312 0.6173
vn -0.6424 -0.4084 -0.6485
vn 0.3587 0.9074 0.2188
vn 0.6270 -0.6040 0.4920
vn -0.1317 -0.9033 -0.4083
vn 0.0960 -0.1100 0.9893
vn 0.6885 -0.5270 0.4982
vn 0.0291 0.9422 0.3339
vn 0.1808 0.9695 0.1657
vn -0.9048 0.2156 -0.3672
vn -0.6407 -0.3120 -0.7016
vn -0.8689 0.2671 -0.4167
vn -0.0107 -0.8777 -0.4792
vn 0.2797 -0.8790 -0.3862
vn 0.3541 0.9175 0.1810
# 156 vertex normals

vt 0.3816 0.0219 0.0000
vt 0.3967 0.0219 0.0000
vt 0.3952 0.0494 0.0000
vt 0.3843 0.0492 0.0000
vt 0.4070 0.0221 0.0000
vt 0.4007 0.0505 0.0000
vt 0.4253 0.0236 0.0000
vt 0.4125 0.0518 0.0000
vt 0.4340 0.0266 0.0000
vt 0.4196 0.0526 0.0000
vt 0.3672 0.0226 0.0000
vt 0.3765 0.0505 0.0000
vt 0.4121 0.0699 0.0000
vt 0.4087 0.0714 0.0000
vt 0.3907 0.0691 0.0000
vt 0.3818 0.0684 0.0000
vt 0.3968 0.0670 0.0000
vt 0.3993 0.0692 0.0000
vt 0.3855 0.0849 0.0000
vt 0.3916 0.0821 0.0000
vt 0.3920 0.0860 0.0000
vt 0.3958 0.0825 0.0000
vt 0.3984 0.0843 0.0000
vt 0.3955 0.0853 0.0000
vt 0.3868 0.1602 0.0000
vt 0.3854 0.1786 0.0000
vt 0.3813 0.1783 0.0000
vt 0.3822 0.1578 0.0000
vt 0.3778 0.1612 0.0000
vt 0.3774 0.1791 0.0000
vt 0.3904 0.1644 0.0000
vt 0.3892 0.1799 0.0000
vt 0.3733 0.1635 0.0000
vt 0.3738 0.1794 0.0000
vt 0.3969 0.1008 0.0000
vt 0.4019 0.1010 0.0000
vt 0.3958 0.1045 0.0000
vt 0.3875 0.0997 0.0000
vt 0.3926 0.0996 0.0000
vt 0.3932 0.1039 0.0000
vt 0.4046 0.1005 0.0000
vt 0.4068 0.1097 0.0000
vt 0.4034 0.1102 0.0000
vt 0.3965 0.1134 0.0000
vt 0.3919 0.1128 0.0000
vt 0.3849 0.1088 0.0000
vt 0.3951 0.0992 0.0000
vt 0.4046 0.0854 0.0000
vt 0.4076 0.0861 0.0000
vt 0.4067 0.1252 0.0000
vt 0.4021 0.1579 0.0000
vt 0.3990 0.1582 0.0000
vt 0.4027 0.1250 0.0000
vt 0.3941 0.1600 0.0000
vt 0.3959 0.1272 0.0000
vt 0.3917 0.1269 0.0000
vt 0.3911 0.1594 0.0000
vt 0.3862 0.1574 0.0000
vt 0.3850 0.1242 0.0000
vt 0.4466 0.3122 0.0000
vt 0.4460 0.3264 0.0000
vt 0.4431 0.3251 0.0000
vt 0.4437 0.3102 0.0000
vt 0.4356 0.3120 0.0000
vt 0.4388 0.3102 0.0000
vt 0.4385 0.3252 0.0000
vt 0.4354 0.3264 0.0000
vt 0.4334 0.3263 0.0000
vt 0.4332 0.3119 0.0000
vt 0.4413 0.3105 0.0000
vt 0.4409 0.3254 0.0000
vt 0.5147 0.3289 0.0000
vt 0.5186 0.3285 0.0000
vt 0.5166 0.3542 0.0000
vt 0.5144 0.3542 0.0000
vt 0.5108 0.3301 0.0000
vt 0.5113 0.3543 0.0000
vt 0.5223 0.3301 0.0000
vt 0.5197 0.3547 0.0000
vt 0.5070 0.3296 0.0000
vt 0.5091 0.3542 0.0000
vt 0.5013 0.3557 0.0000
vt 0.4975 0.3553 0.0000
vt 0.4991 0.3329 0.0000
vt 0.5012 0.3334 0.0000
vt 0.5053 0.3549 0.0000
vt 0.5042 0.3324 0.0000
vt 0.4935 0.3542 0.0000
vt 0.4962 0.3318 0.0000
vt 0.5063 0.3318 0.0000
vt 0.4447 0.3457 0.0000
vt 0.4423 0.3446 0.0000
vt 0.4389 0.3449 0.0000
vt 0.4362 0.3458 0.0000
vt 0.4345 0.3457 0.0000
vt 0.4406 0.3450 0.0000
vt 0.3829 0.2003 0.0000
vt 0.3812 0.1992 0.0000
vt 0.3783 0.1989 0.0000
vt 0.3859 0.2003 0.0000
vt 0.3765 0.1998 0.0000
vt 0.8716 0.8201 0.0000
vt 0.8694 0.8645 0.0000
vt 0.8329 0.8420 0.0000
vt 0.9007 0.8347 0.0000
vt 0.9018 0.8554 0.0000
vt 0.7811 0.9625 0.0000
vt 0.8051 0.9491 0.0000
vt 0.8194 0.9775 0.0000
vt 0.8361 0.8930 0.0000
vt 0.9125 0.9414 0.0000
vt 0.9558 0.9799 0.0000
vt 0.9030 0.9872 0.0000
vt 0.9756 0.8575 0.0000
vt 0.9840 0.8880 0.0000
vt 0.9575 0.8737 0.0000
vt 0.9408 0.8936 0.0000
vt 0.9482 0.9237 0.0000
vt 0.9188 0.9123 0.0000
vt 0.7929 0.9228 0.0000
vt 0.8964 0.8083 0.0000
vt 0.9428 0.7794 0.0000
vt 0.9677 0.7952 0.0000
vt 0.9471 0.8299 0.0000
vt 0.7620 0.9453 0.0000
vt 0.8465 0.9208 0.0000
vt 0.8837 0.9339 0.0000
vt 0.8783 0.9590 0.0000
vt 0.8386 0.9537 0.0000
vt 0.9759 0.9565 0.0000
vt 0.9827 0.9764 0.0000
vt 0.8955 0.8773 0.0000
vt 0.8729 0.9054 0.0000
vt 0.9255 0.8644 0.0000
vt 0.9304 0.8484 0.0000
vt 0.8594 0.9842 0.0000
vt 0.9129 0.7830 0.0000
vt 0.9325 0.8763 0.0000
vt 0.8842 0.7975 0.0000
vt 0.9843 0.8315 0.0000
vt 0.5620 0.5550 0.0000
vt 0.5801 0.5428 0.0000
vt 0.5773 0.5726 0.0000
vt 0.5630 0.5315 0.0000
vt 0.5733 0.5277 0.0000
vt 0.5452 0.5528 0.0000
vt 0.5277 0.5615 0.0000
vt 0.5268 0.5456 0.0000
vt 0.6001 0.5592 0.0000
vt 0.6252 0.5199 0.0000
vt 0.6408 0.4909 0.0000
vt 0.6491 0.5152 0.0000
vt 0.5849 0.4738 0.0000
vt 0.5953 0.4766 0.0000
vt 0.5767 0.4914 0.0000
vt 0.5914 0.5035 0.0000
vt 0.6101 0.4960 0.0000
vt 0.6037 0.5170 0.0000
vt 0.5484 0.5698 0.0000
vt 0.6297 0.5788 0.0000
vt 0.6071 0.5813 0.0000
vt 0.5475 0.5459 0.0000
vt 0.5208 0.5256 0.0000
vt 0.6190 0.5537 0.0000
vt 0.6263 0.5360 0.0000
vt 0.6368 0.5359 0.0000
vt 0.6306 0.5619 0.0000
vt 0.6425 0.5651 0.0000
vt 0.6249 0.4812 0.0000
vt 0.6323 0.4745 0.0000
vt 0.5824 0.5287 0.0000
vt 0.6029 0.5410 0.0000
vt 0.5745 0.5094 0.0000
vt 0.5647 0.5102 0.0000
vt 0.5556 0.4897 0.0000
vt 0.5248 0.5053 0.0000
vt 0.6493 0.5417 0.0000
vt 0.5783 0.5051 0.0000
vt 0.5371 0.4908 0.0000
# 179 texture coords

g Forest_C_Tree_15
usemtl ForestPack_Trees
s off
f 1/1/1 2/2/1 3/3/1 4/4/1 
f 2/2/2 5/5/2 6/6/2 3/3/2 
f 5/5/3 7/7/3 8/8/3 6/6/3 
f 7/7/4 9/9/4 10/10/4 8/8/4 
f 9/11/5 1/1/5 4/4/5 10/12/5 
f 8/8/6 10/10/6 11/13/6 12/14/6 
f 10/12/7 4/4/7 13/15/7 11/16/7 
f 4/4/8 3/3/8 14/17/8 13/15/8 
f 3/3/9 6/6/9 15/18/9 14/17/9 
f 6/6/10 8/8/10 12/14/10 15/18/10 
f 16/19/11 17/20/11 18/21/11 
f 19/22/12 20/23/12 21/24/12 
f 19/25/13 22/26/13 23/27/13 17/28/13 
f 18/29/14 17/28/14 23/27/14 24/30/14 
f 21/31/15 25/32/15 22/26/15 19/25/15 
f 21/33/16 18/29/16 24/30/16 25/34/16 
f 26/35/17 27/36/17 28/37/17 
f 29/38/18 30/39/18 31/40/18 
f 27/36/19 29/41/19 32/42/19 33/43/19 
f 28/37/20 27/36/20 33/43/20 34/44/20 
f 31/40/21 35/45/21 32/46/21 29/38/21 
f 28/37/22 34/44/22 35/45/22 31/40/22 
f 18/21/23 21/24/23 36/47/23 30/39/23 
f 21/24/24 20/23/24 26/35/24 36/47/24 
f 20/23/25 37/48/25 27/36/25 26/35/25 
f 37/48/26 16/49/26 29/41/26 27/36/26 
f 16/19/27 18/21/27 30/39/27 29/38/27 
f 38/50/28 39/51/28 40/52/28 41/53/28 
f 40/52/29 42/54/29 43/55/29 41/53/29 
f 44/56/30 45/57/30 39/58/30 38/59/30 
f 42/54/31 45/57/31 44/56/31 43/55/31 
f 14/17/32 15/18/32 20/23/32 19/22/32 
f 15/18/33 12/14/33 37/48/33 20/23/33 
f 12/14/34 11/13/34 16/49/34 37/48/34 
f 11/16/35 13/15/35 17/20/35 16/19/35 
f 13/15/36 14/17/36 19/22/36 17/20/36 
f 28/60/37 46/61/37 47/62/37 26/63/37 
f 31/64/38 30/65/38 48/66/38 49/67/38 
f 31/64/39 49/67/39 46/68/39 28/69/39 
f 36/70/40 50/71/40 48/66/40 30/65/40 
f 36/70/41 26/63/41 47/62/41 50/71/41 
f 38/50/42 41/53/42 33/43/42 32/42/42 
f 33/43/43 41/53/43 43/55/43 34/44/43 
f 44/56/44 38/59/44 32/46/44 35/45/44 
f 34/44/45 43/55/45 44/56/45 35/45/45 
f 51/72/46 52/73/46 53/74/46 54/75/46 
f 55/76/47 51/72/47 54/75/47 56/77/47 
f 52/73/48 57/78/48 58/79/48 53/74/48 
f 57/80/49 55/76/49 56/77/49 58/81/49 
f 59/82/50 60/83/50 61/84/50 62/85/50 
f 63/86/51 59/82/51 62/85/51 64/87/51 
f 60/83/52 65/88/52 66/89/52 61/84/52 
f 65/81/53 63/86/53 64/87/53 66/90/53 
f 46/61/54 67/91/54 68/92/54 47/62/54 
f 69/93/55 70/94/55 49/67/55 48/66/55 
f 49/67/56 70/94/56 67/95/56 46/68/56 
f 50/71/57 71/96/57 69/93/57 48/66/57 
f 68/92/58 71/96/58 50/71/58 47/62/58 
f 22/26/59 72/97/59 73/98/59 23/27/59 
f 23/27/60 73/98/60 74/99/60 24/30/60 
f 75/100/61 72/97/61 22/26/61 25/32/61 
f 74/99/62 75/101/62 25/34/62 24/30/62 
f 76/102/63 77/103/63 78/104/63 
f 76/102/64 79/105/64 80/106/64 
f 81/107/65 82/108/65 83/109/65 
f 84/110/66 78/104/66 77/103/66 
f 85/111/67 86/112/67 87/113/67 
f 88/114/68 89/115/68 90/116/68 
f 91/117/69 92/118/69 93/119/69 
f 78/120/70 82/108/70 81/107/70 
f 84/110/71 82/108/71 78/120/71 
f 94/121/72 95/122/72 79/105/72 
f 95/122/73 87/123/73 96/124/73 
f 78/120/74 81/107/74 76/125/74 
f 94/121/75 79/105/75 76/102/75 
f 97/126/76 98/127/76 99/128/76 100/129/76 
f 100/129/77 82/108/77 97/126/77 
f 83/109/78 82/108/78 100/129/78 
f 89/130/79 88/131/79 86/112/79 
f 85/111/80 92/118/80 86/112/80 
f 90/116/81 89/115/81 91/117/81 
f 77/103/82 76/102/82 80/106/82 101/132/82 
f 97/126/83 82/108/83 84/110/83 
f 85/111/84 98/127/84 102/133/84 
f 90/116/85 103/134/85 104/135/85 88/114/85 
f 79/105/86 95/122/86 96/124/86 104/135/86 
f 83/109/87 100/129/87 95/136/87 
f 94/121/88 83/137/88 95/122/88 
f 77/103/89 101/132/89 102/133/89 84/110/89 
f 91/117/90 101/132/90 105/138/90 
f 92/118/91 91/117/91 89/115/91 
f 86/112/92 92/118/92 89/130/92 
f 94/121/93 81/139/93 83/137/93 
f 94/121/94 76/102/94 81/139/94 
f 92/118/95 85/111/95 93/119/95 
f 93/119/96 85/111/96 102/133/96 
f 79/105/97 103/134/97 80/106/97 
f 98/127/98 85/111/98 99/128/98 
f 102/133/99 91/117/99 93/119/99 
f 103/134/100 105/138/100 101/132/100 80/106/100 
f 84/110/101 102/133/101 98/127/101 97/126/101 
f 101/132/102 91/117/102 102/133/102 
f 95/136/103 100/129/103 99/128/103 
f 87/113/104 95/136/104 99/128/104 
f 88/114/105 96/124/105 87/123/105 86/140/105 
f 103/134/106 79/105/106 104/135/106 
f 96/124/107 88/114/107 104/135/107 
f 103/134/108 90/116/108 105/138/108 
f 105/138/90 90/116/90 91/117/90 
f 87/113/109 99/128/109 85/111/109 
f 106/141/110 107/142/110 108/143/110 
f 106/141/111 109/144/111 110/145/111 
f 111/146/112 112/147/112 113/148/112 
f 114/149/113 108/143/113 107/142/113 
f 115/150/114 116/151/114 117/152/114 
f 118/153/115 119/154/115 120/155/115 
f 121/156/116 122/157/116 123/158/116 
f 108/159/117 112/147/117 111/146/117 
f 114/149/118 112/160/118 108/161/118 
f 124/162/119 125/163/119 109/144/119 
f 108/159/120 111/146/120 106/141/120 
f 124/162/121 109/144/121 106/141/121 
f 126/164/122 127/165/122 128/166/122 129/167/122 
f 129/167/123 112/160/123 126/164/123 
f 113/168/124 112/160/124 129/167/124 
f 119/169/125 118/170/125 116/151/125 
f 115/150/126 122/157/126 116/151/126 
f 120/155/127 119/154/127 121/156/127 
f 107/142/128 106/141/128 110/145/128 130/171/128 
f 126/164/129 112/160/129 114/149/129 
f 115/150/130 127/165/130 131/172/130 
f 120/155/131 132/173/131 133/174/131 118/175/131 
f 109/144/132 125/163/132 117/176/132 133/174/132 
f 113/168/133 129/167/133 125/177/133 
f 124/162/134 113/148/134 125/163/134 
f 107/142/135 130/171/135 131/172/135 114/149/135 
f 121/156/136 130/171/136 134/178/136 
f 122/157/137 121/156/137 119/154/137 
f 116/151/138 122/157/138 119/169/138 
f 124/162/139 111/146/139 113/148/139 
f 124/162/140 106/141/140 111/146/140 
f 122/157/141 115/150/141 123/158/141 
f 123/158/142 115/150/142 131/172/142 
f 109/144/143 132/173/143 110/145/143 
f 127/165/144 115/150/144 128/166/144 
f 131/172/145 121/156/145 123/158/145 
f 132/173/146 134/178/146 130/171/146 110/145/146 
f 114/149/147 131/172/147 127/165/147 126/164/147 
f 130/171/148 121/156/148 131/172/148 
f 125/177/149 129/167/149 128/166/149 
f 117/152/150 125/177/150 128/166/150 
f 117/176/151 116/179/151 118/175/151 
f 132/173/152 109/144/152 133/174/152 
f 117/176/153 118/175/153 133/174/153 
f 132/173/154 120/155/154 134/178/154 
f 134/178/155 120/155/155 121/156/155 
f 117/152/156 128/166/156 115/150/156 
# 73 polygons - 84 triangles

