# 3ds Max Wavefront OBJ Exporter v0.97b - (c)2007 guruware
# File Created: 20.05.2016 21:20:18

mtllib Forest_B_DeadTree_05.mtl

#
# object Forest_B_DeadTree_05
#

v  1.6325 136.5596 -19.1157
v  12.6594 136.6700 -7.8180
v  15.5030 0.0073 0.8183
v  1.9360 0.0000 -17.8560
v  -12.5174 136.2768 -12.1195
v  -20.0157 0.0119 -10.7583
v  -10.2355 136.2125 3.5019
v  -20.0157 0.0266 12.3027
v  5.3246 136.4555 6.1604
v  1.9360 0.0238 19.4574
v  -2.6414 272.3166 -13.4043
v  5.2500 272.1614 -7.3814
v  -10.8097 272.2768 -7.7604
v  -7.9664 272.0971 1.7505
v  1.9591 272.0258 1.9847
v  -2.5056 407.8558 -8.4005
v  3.2848 407.7356 -5.1977
v  -7.4379 408.0939 -3.9137
v  -4.6318 408.1203 2.2557
v  2.0971 407.8965 1.3839
v  2.3416 543.5146 -7.0194
v  3.7812 543.4788 -6.4645
v  1.3803 543.5858 -5.8194
v  2.2176 543.5630 -4.5389
v  3.6937 543.5281 -4.9322
v  -3.2719 236.6681 -12.3875
v  -6.9608 242.9883 -5.2708
v  51.1569 284.7101 -15.5277
v  52.8036 281.9001 -19.4574
v  -1.4178 238.2103 1.8458
v  52.9250 281.1969 -12.2747
v  2.2711 231.8900 -5.2708
v  54.5717 278.3870 -16.2045
v  116.0273 315.4188 -13.6171
v  -2.0886 312.4254 1.1612
v  0.6377 317.1353 -4.2237
v  -43.7727 346.5720 1.4811
v  -44.8991 344.4191 4.4391
v  -2.9895 313.0783 -9.6086
v  -46.0674 344.5772 -0.8446
v  -5.7157 308.3683 -4.2237
v  -47.1938 342.4243 2.1134
v  -85.5141 379.0247 11.6827
v  -2.1593 388.0177 -6.6869
v  -4.0238 391.2458 -3.0637
v  26.3132 408.8346 -4.8575
v  27.0380 407.3637 -6.8251
v  -2.0038 388.1127 0.5769
v  28.1364 407.7677 -3.4099
v  -0.2018 384.9843 -3.0637
v  28.8539 406.3067 -5.3757
v  50.6749 432.9364 -15.5451
v  0.0790 463.3198 -2.1563
v  0.9815 464.8830 -3.9604
v  -14.8033 473.4115 -3.6579
v  -15.1979 472.7171 -2.6628
v  0.0123 463.3603 -5.7645
v  -15.3438 472.5753 -4.4559
v  -0.8901 461.7971 -3.9604
v  -15.7384 471.8809 -3.4608
v  -30.5339 482.0352 -3.0598
v  0.1812 161.1005 3.2271
v  4.8055 169.0088 -5.6549
v  -68.2759 220.7399 6.5844
v  -70.4563 217.2619 11.4684
v  -2.2392 163.1524 -14.5369
v  -69.2126 215.8045 2.6515
v  -6.8634 155.2441 -5.6549
v  -71.3930 212.3264 7.5355
v  -153.0364 245.4906 -9.4631
v  33.2207 263.4690 -10.3432
v  33.0988 265.7079 -14.2379
v  43.2264 290.6584 0.9555
v  43.4635 289.4142 2.8116
v  28.8465 266.9074 -13.4153
v  41.5494 291.7929 1.9301
v  28.9685 264.6685 -9.5205
v  41.7865 290.5487 3.7862
v  63.2532 311.5092 13.7345
v  -46.1998 199.0436 7.5251
v  -47.3006 203.4946 2.8096
v  -91.8072 201.7693 13.0516
v  -91.0636 199.7967 15.7072
v  -48.1310 198.6186 -1.5564
v  -93.3825 199.2660 11.4182
v  -47.0304 194.1676 3.1584
v  -92.6338 197.2936 14.0913
v  -136.1125 211.3780 18.3810
v  -136.1226 211.3776 18.3457
v  -136.1247 211.3773 18.3362
v  -136.1269 211.3773 18.3292
v  -29.8314 330.8600 -1.1361
v  -28.9718 332.3688 1.3453
v  -39.8000 349.5077 -4.9589
v  -40.6863 348.0041 -7.0839
v  -26.4010 333.1771 -0.0368
v  -37.8986 350.6039 -6.6135
v  -27.2606 331.6683 -2.5182
v  -38.8245 349.0830 -8.7101
v  -57.8675 369.5956 -7.5126
v  -57.9451 369.3958 -7.7594
v  -57.6809 369.7560 -7.6889
v  -57.7659 369.5503 -7.9312
# 103 vertices

vn 0.7730 0.6342 -0.0141
vn -0.3637 0.9315 0.0006
vn -0.9961 -0.0588 0.0654
vn -0.2526 -0.9634 0.0903
vn 0.8411 -0.5393 0.0416
vn 0.6746 0.7367 0.0458
vn -0.4929 0.8696 0.0276
vn -0.9797 -0.1999 0.0124
vn -0.1129 -0.9934 0.0212
vn 0.9091 -0.4144 0.0419
vn 0.5592 0.8286 0.0257
vn -0.6111 0.7909 0.0337
vn -0.9406 -0.3391 0.0178
vn 0.0383 -0.9993 -0.0001
vn 0.9627 -0.2704 0.0049
vn 0.4610 0.8874 -0.0087
vn -0.6931 0.7201 0.0335
vn -0.8964 -0.4383 0.0659
vn 0.1536 -0.9872 0.0430
vn 0.9879 -0.1553 -0.0033
vn 0.0529 0.0168 0.9985
vn 0.0153 0.0313 0.9994
vn 0.0318 0.0179 0.9993
vn -0.5060 0.6814 0.5287
vn -0.3129 -0.7179 0.6219
vn 0.5628 -0.6709 -0.4828
vn 0.3706 0.7252 -0.5802
vn -0.3149 0.6358 0.7047
vn -0.2911 -0.7706 0.5670
vn 0.3775 -0.6381 -0.6711
vn 0.3538 0.7683 -0.5334
vn 0.8809 -0.0314 0.4723
vn 0.4676 -0.6803 0.5644
vn 0.3104 0.7229 0.6173
vn -0.5249 0.6720 -0.5223
vn -0.3664 -0.7321 -0.5742
vn 0.5726 -0.6137 0.5436
vn 0.2676 0.7657 0.5849
vn -0.6256 0.6006 -0.4979
vn -0.3205 -0.7788 -0.5392
vn -0.7444 -0.1839 0.6419
vn -0.3970 0.6913 0.6037
vn -0.3048 -0.7326 0.6086
vn 0.4666 -0.6763 -0.5700
vn 0.3678 0.7340 -0.5710
vn -0.6872 0.5801 0.4374
vn -0.2557 -0.7612 0.5960
vn 0.7340 -0.5569 -0.3888
vn 0.3041 0.7799 -0.5470
vn 0.6678 0.2941 0.6838
vn 0.3626 -0.6811 0.6361
vn 0.3089 0.7309 0.6085
vn -0.4235 0.6795 -0.5991
vn -0.3697 -0.7326 -0.5715
vn 0.3931 -0.6259 0.6736
vn 0.2788 0.7784 0.5625
vn -0.4536 0.6239 -0.6363
vn -0.3393 -0.7804 -0.5253
vn -0.8515 -0.0279 0.5236
vn 0.4970 -0.6856 0.5319
vn 0.3125 0.7182 0.6217
vn -0.5584 0.6750 -0.4823
vn -0.3731 -0.7225 -0.5820
vn 0.1137 -0.6095 0.7846
vn 0.3085 0.7716 0.5563
vn -0.1797 0.6226 -0.7616
vn -0.3746 -0.7585 -0.5333
vn -0.9282 0.1844 0.3231
vn 0.9421 0.2147 -0.2575
vn -0.0442 0.8427 0.5366
vn -0.9143 -0.2500 0.3186
vn 0.0760 -0.8740 -0.4800
vn 0.7692 0.4207 -0.4810
vn -0.0820 0.8127 0.5769
vn -0.7225 -0.4463 0.5281
vn 0.1288 -0.8383 -0.5298
vn 0.6572 -0.3598 0.6622
vn 0.1225 -0.6344 0.7632
vn -0.1963 0.7285 0.6563
vn -0.1937 0.6156 -0.7638
vn 0.1304 -0.7490 -0.6497
vn 0.2394 -0.5403 0.8067
vn 0.0191 0.8361 0.5482
vn -0.3099 0.5079 -0.8038
vn -0.0807 -0.8574 -0.5083
vn 0.2741 0.0885 0.9576
vn -0.7968 -0.5119 -0.3210
vn 0.3255 -0.7978 0.5075
vn 0.7860 0.5238 0.3283
vn -0.3323 0.8015 -0.4971
vn -0.6284 -0.6058 -0.4880
vn 0.4079 -0.7851 0.4661
vn 0.5543 0.6360 0.5370
vn -0.4604 0.7944 -0.3962
vn -0.7570 0.2491 0.6041
# 95 vertex normals

vt 0.3245 0.6075 0.0000
vt 0.3194 0.6069 0.0000
vt 0.3231 0.5623 0.0000
vt 0.3305 0.5634 0.0000
vt 0.3038 0.6064 0.0000
vt 0.2987 0.6069 0.0000
vt 0.2931 0.5628 0.0000
vt 0.3006 0.5618 0.0000
vt 0.3090 0.6061 0.0000
vt 0.3081 0.5612 0.0000
vt 0.3142 0.6063 0.0000
vt 0.3156 0.5614 0.0000
vt 0.3190 0.6514 0.0000
vt 0.3158 0.6511 0.0000
vt 0.3061 0.6509 0.0000
vt 0.3029 0.6510 0.0000
vt 0.3093 0.6508 0.0000
vt 0.3126 0.6509 0.0000
vt 0.3155 0.6955 0.0000
vt 0.3133 0.6953 0.0000
vt 0.3067 0.6952 0.0000
vt 0.3046 0.6952 0.0000
vt 0.3089 0.6952 0.0000
vt 0.3112 0.6952 0.0000
vt 0.3091 0.7395 0.0000
vt 0.3091 0.7394 0.0000
vt 0.0639 0.7651 0.0000
vt 0.0672 0.7646 0.0000
vt 0.0697 0.7879 0.0000
vt 0.0681 0.7882 0.0000
vt 0.0705 0.7646 0.0000
vt 0.0713 0.7876 0.0000
vt 0.0738 0.7646 0.0000
vt 0.0730 0.7876 0.0000
vt 0.0607 0.7659 0.0000
vt 0.0665 0.7883 0.0000
vt 0.0727 0.8109 0.0000
vt 0.0270 0.7534 0.0000
vt 0.0295 0.7536 0.0000
vt 0.0275 0.7709 0.0000
vt 0.0263 0.7708 0.0000
vt 0.0320 0.7539 0.0000
vt 0.0287 0.7711 0.0000
vt 0.0344 0.7545 0.0000
vt 0.0299 0.7714 0.0000
vt 0.0246 0.7533 0.0000
vt 0.0250 0.7708 0.0000
vt 0.0254 0.7882 0.0000
vt 0.0254 0.7883 0.0000
vt 0.2958 0.6537 0.0000
vt 0.2974 0.6534 0.0000
vt 0.2989 0.6647 0.0000
vt 0.2981 0.6649 0.0000
vt 0.2991 0.6531 0.0000
vt 0.2997 0.6648 0.0000
vt 0.3007 0.6531 0.0000
vt 0.3006 0.6648 0.0000
vt 0.2941 0.6540 0.0000
vt 0.2973 0.6652 0.0000
vt 0.3002 0.6763 0.0000
vt 0.3002 0.6764 0.0000
vt 0.0629 0.7906 0.0000
vt 0.0637 0.7906 0.0000
vt 0.0635 0.7964 0.0000
vt 0.0631 0.7964 0.0000
vt 0.0645 0.7907 0.0000
vt 0.0639 0.7965 0.0000
vt 0.0612 0.7908 0.0000
vt 0.0621 0.7907 0.0000
vt 0.0627 0.7964 0.0000
vt 0.0622 0.7965 0.0000
vt 0.0633 0.8022 0.0000
vt 0.1250 0.7854 0.0000
vt 0.1291 0.7859 0.0000
vt 0.1246 0.8148 0.0000
vt 0.1226 0.8145 0.0000
vt 0.1331 0.7870 0.0000
vt 0.1265 0.8148 0.0000
vt 0.1167 0.7857 0.0000
vt 0.1208 0.7855 0.0000
vt 0.1207 0.8139 0.0000
vt 0.1186 0.8138 0.0000
vt 0.1179 0.8431 0.0000
vt 0.1179 0.8430 0.0000
vt 0.3248 0.6875 0.0000
vt 0.3262 0.6871 0.0000
vt 0.3284 0.6969 0.0000
vt 0.3277 0.6971 0.0000
vt 0.3276 0.6868 0.0000
vt 0.3291 0.6969 0.0000
vt 0.3291 0.6866 0.0000
vt 0.3298 0.6969 0.0000
vt 0.3305 0.6867 0.0000
vt 0.3305 0.6968 0.0000
vt 0.3300 0.7071 0.0000
vt 0.3242 0.6555 0.0000
vt 0.3263 0.6552 0.0000
vt 0.3282 0.6700 0.0000
vt 0.3271 0.6700 0.0000
vt 0.3284 0.6549 0.0000
vt 0.3293 0.6702 0.0000
vt 0.3305 0.6549 0.0000
vt 0.3304 0.6700 0.0000
vt 0.3221 0.6559 0.0000
vt 0.3261 0.6705 0.0000
vt 0.3300 0.6848 0.0000
vt 0.1302 0.8170 0.0000
vt 0.1312 0.8171 0.0000
vt 0.1311 0.8241 0.0000
vt 0.1301 0.8240 0.0000
vt 0.1321 0.8170 0.0000
vt 0.1320 0.8242 0.0000
vt 0.1331 0.8170 0.0000
vt 0.1329 0.8242 0.0000
vt 0.1292 0.8169 0.0000
vt 0.1293 0.8241 0.0000
vt 0.1309 0.8332 0.0000
vt 0.1309 0.8331 0.0000
# 118 texture coords

g Forest_B_DeadTree_05
usemtl ForestPack_Trees
s off
f 1/1/1 2/2/1 3/3/1 4/4/1 
f 5/5/2 1/6/2 4/7/2 6/8/2 
f 7/9/3 5/5/3 6/8/3 8/10/3 
f 9/11/4 7/9/4 8/10/4 10/12/4 
f 2/2/5 9/11/5 10/12/5 3/3/5 
f 11/13/6 12/14/6 2/2/6 1/1/6 
f 13/15/7 11/16/7 1/6/7 5/5/7 
f 14/17/8 13/15/8 5/5/8 7/9/8 
f 15/18/9 14/17/9 7/9/9 9/11/9 
f 12/14/10 15/18/10 9/11/10 2/2/10 
f 16/19/11 17/20/11 12/14/11 11/13/11 
f 18/21/12 16/22/12 11/16/12 13/15/12 
f 19/23/13 18/21/13 13/15/13 14/17/13 
f 20/24/14 19/23/14 14/17/14 15/18/14 
f 17/20/15 20/24/15 15/18/15 12/14/15 
f 21/25/16 22/25/16 17/20/16 16/19/16 
f 23/25/17 21/26/17 16/22/17 18/21/17 
f 24/25/18 23/25/18 18/21/18 19/23/18 
f 25/25/19 24/25/19 19/23/19 20/24/19 
f 22/25/20 25/25/20 20/24/20 17/20/20 
f 21/25/21 23/25/21 24/25/21 
f 24/25/22 25/25/22 22/25/22 
f 21/25/23 24/25/23 22/25/23 
f 26/27/24 27/28/24 28/29/24 29/30/24 
f 27/28/25 30/31/25 31/32/25 28/29/25 
f 30/31/26 32/33/26 33/34/26 31/32/26 
f 32/35/27 26/27/27 29/30/27 33/36/27 
f 29/30/28 28/29/28 34/37/28 34/37/28 
f 28/29/29 31/32/29 34/37/29 34/37/29 
f 31/32/30 33/34/30 34/37/30 34/37/30 
f 33/36/31 29/30/31 34/37/31 34/37/31 
f 34/37/32 34/37/32 34/37/32 34/37/32 
f 35/38/33 36/39/33 37/40/33 38/41/33 
f 36/39/34 39/42/34 40/43/34 37/40/34 
f 39/42/35 41/44/35 42/45/35 40/43/35 
f 41/46/36 35/38/36 38/41/36 42/47/36 
f 38/41/37 37/40/37 43/48/37 43/48/37 
f 37/40/38 40/43/38 43/49/38 43/48/38 
f 40/43/39 42/45/39 43/49/39 43/49/39 
f 42/47/40 38/41/40 43/48/40 43/49/40 
f 43/48/41 43/49/41 43/49/41 43/48/41 
f 44/50/42 45/51/42 46/52/42 47/53/42 
f 45/51/43 48/54/43 49/55/43 46/52/43 
f 48/54/44 50/56/44 51/57/44 49/55/44 
f 50/58/45 44/50/45 47/53/45 51/59/45 
f 47/53/46 46/52/46 52/60/46 52/60/46 
f 46/52/47 49/55/47 52/61/47 52/60/47 
f 49/55/48 51/57/48 52/61/48 52/61/48 
f 51/59/49 47/53/49 52/60/49 52/61/49 
f 52/60/50 52/61/50 52/61/50 52/60/50 
f 53/62/51 54/63/51 55/64/51 56/65/51 
f 54/63/52 57/66/52 58/67/52 55/64/52 
f 57/68/53 59/69/53 60/70/53 58/71/53 
f 59/69/54 53/62/54 56/65/54 60/70/54 
f 56/65/55 55/64/55 61/72/55 61/72/55 
f 55/64/56 58/67/56 61/72/56 61/72/56 
f 58/71/57 60/70/57 61/72/57 61/72/57 
f 60/70/58 56/65/58 61/72/58 61/72/58 
f 61/72/59 61/72/59 61/72/59 61/72/59 
f 62/73/60 63/74/60 64/75/60 65/76/60 
f 63/74/61 66/77/61 67/78/61 64/75/61 
f 66/79/62 68/80/62 69/81/62 67/82/62 
f 68/80/63 62/73/63 65/76/63 69/81/63 
f 65/76/64 64/75/64 70/83/64 70/83/64 
f 64/75/65 67/78/65 70/84/65 70/83/65 
f 67/82/66 69/81/66 70/84/66 70/84/66 
f 69/81/67 65/76/67 70/83/67 70/84/67 
f 70/83/68 70/84/68 70/84/68 70/83/68 
f 71/85/69 72/86/69 73/87/69 74/88/69 
f 72/86/70 75/89/70 76/90/70 73/87/70 
f 75/89/71 77/91/71 78/92/71 76/90/71 
f 77/91/72 71/93/72 74/94/72 78/92/72 
f 74/88/73 73/87/73 79/95/73 79/95/73 
f 73/87/74 76/90/74 79/95/74 79/95/74 
f 76/90/75 78/92/75 79/95/75 79/95/75 
f 78/92/76 74/94/76 79/95/76 79/95/76 
f 79/95/77 79/95/77 79/95/77 79/95/77 
f 80/96/78 81/97/78 82/98/78 83/99/78 
f 81/97/79 84/100/79 85/101/79 82/98/79 
f 84/100/80 86/102/80 87/103/80 85/101/80 
f 86/104/81 80/96/81 83/99/81 87/105/81 
f 83/99/82 82/98/82 88/106/82 89/106/82 
f 82/98/83 85/101/83 90/106/83 88/106/83 
f 85/101/84 87/103/84 91/106/84 90/106/84 
f 87/105/85 83/99/85 89/106/85 91/106/85 
f 88/106/86 90/106/86 91/106/86 89/106/86 
f 92/107/87 93/108/87 94/109/87 95/110/87 
f 93/108/88 96/111/88 97/112/88 94/109/88 
f 96/111/89 98/113/89 99/114/89 97/112/89 
f 98/115/90 92/107/90 95/110/90 99/116/90 
f 95/110/91 94/109/91 100/117/91 101/118/91 
f 94/109/92 97/112/92 102/117/92 100/117/92 
f 97/112/93 99/114/93 103/117/93 102/117/93 
f 99/116/94 95/110/94 101/118/94 103/118/94 
f 100/117/95 102/118/95 103/118/95 101/118/95 
# 92 polygons - 3 triangles

