# 3ds Max Wavefront OBJ Exporter v0.97b - (c)2007 guruware
# File Created: 20.05.2016 21:20:12

mtllib Forest_B_Rock_05.mtl

#
# object Forest_B_Rock_05
#

v  56.5782 10.0834 7.4810
v  46.9422 4.3847 15.8215
v  57.4683 2.6680 3.3844
v  -22.0800 23.2316 -20.2698
v  -34.8470 7.7040 -16.3783
v  -47.1175 12.1326 -4.0339
v  1.3004 2.7335 24.4162
v  -8.1110 15.9062 21.2192
v  -13.1230 0.0000 22.7721
v  36.9441 28.2234 -10.7225
v  15.5865 35.9551 -10.9479
v  33.1884 34.7516 8.3527
v  -10.6691 45.4015 7.4540
v  -45.0908 28.0727 18.5417
v  -19.9148 37.8457 22.7013
v  39.6835 14.1551 -23.8937
v  26.0516 6.9708 -30.6165
v  9.2951 13.4415 -37.5657
v  -35.0662 23.3636 26.7857
v  -46.2033 24.6646 29.4024
v  -38.7782 12.3530 34.6001
v  -17.5301 28.0988 -18.9652
v  -45.2806 17.5426 -1.6729
v  -39.7894 26.0214 1.4788
v  -56.8319 13.5474 32.1073
v  -59.7723 18.8726 24.1262
v  -60.9033 7.9396 20.1582
v  14.7454 40.6115 24.1704
v  9.0974 47.6409 11.8852
v  39.5364 6.4267 21.0453
v  47.5877 18.1493 15.0903
v  14.9128 32.5998 -17.8914
v  13.6198 20.4904 -32.0751
v  -17.3647 34.7512 -9.6599
v  34.4706 9.6076 -25.7523
v  57.2503 2.2623 -17.0993
v  60.4004 3.3347 -14.0667
v  53.4164 13.4645 -17.8951
v  55.4935 19.5268 -4.2959
v  -28.5469 19.3481 25.1109
v  -27.6605 1.2582 31.0067
v  -47.4289 0.0000 35.3580
v  -36.7625 0.0000 34.0671
v  -52.4396 12.6614 37.0203
v  -11.4358 43.2894 25.4215
v  3.4189 47.1880 23.5112
v  13.2628 21.9653 32.2999
v  -5.7284 26.0384 26.2713
v  -5.8135 14.4363 -36.7343
v  -22.5116 6.6501 -29.0593
v  -8.8804 21.9143 -30.4034
v  -16.5085 6.2811 -32.6180
v  18.7738 5.5727 -35.4946
v  -51.5482 25.4417 25.0327
v  -14.0844 5.4472 20.1169
v  -17.4421 23.0159 21.4534
v  9.4706 36.4138 -13.7466
v  6.1464 47.2251 7.7435
v  11.5129 2.3246 25.9738
v  26.5623 3.2646 26.4064
v  18.0487 9.8713 26.7798
v  -55.4499 14.7914 10.3335
v  -49.9803 3.3727 3.3755
v  -52.3772 8.8629 3.1511
v  39.7305 21.8360 21.2467
v  35.0173 32.4205 12.8382
v  60.9086 7.5170 -2.9021
v  -15.6124 0.0001 -26.2352
v  -47.1093 0.0000 3.0183
v  8.5484 0.0000 -34.1187
v  4.3248 33.7619 29.1793
v  23.3462 27.1029 29.4615
v  57.5562 15.2043 -1.1488
v  48.1625 22.6122 11.9327
v  -50.2067 13.2647 37.5657
v  37.4847 23.6654 -16.4233
v  40.8883 30.8475 3.1418
v  45.1323 22.7355 -13.1781
v  27.4144 0.0000 -28.6318
v  48.1606 0.0000 -20.4004
v  24.4447 24.0151 29.8566
v  40.8581 12.8417 19.1687
v  28.8464 11.7916 24.4485
v  44.1090 0.0000 15.4418
v  57.7384 0.0000 -11.5572
v  -56.3916 0.0000 19.0248
v  -51.6700 0.0001 30.3658
v  -11.9978 30.4463 23.7579
v  -52.7963 22.2670 14.6408
v  36.8131 1.4485 21.6841
v  45.2865 19.0149 -18.7236
v  51.9611 18.1864 -13.9731
v  28.7637 0.0000 23.9771
v  -31.1208 29.1847 26.5795
v  47.7593 25.0192 7.0534
v  15.2213 0.0001 24.3890
v  -1.1587 0.1477 23.2457
# 97 vertices

vn 0.7164 -0.6435 -0.2695
vn -0.6114 0.7231 0.3215
vn -0.1382 -0.9806 0.1393
vn 0.3322 0.2462 0.9105
vn -0.3839 -0.2125 0.8986
vn 0.4075 0.9098 0.0782
vn 0.2530 -0.8272 0.5018
vn -0.5773 0.5691 0.5855
vn -0.9430 -0.3321 -0.0230
vn 0.4850 -0.2556 0.8364
vn 0.5793 -0.8150 0.0161
vn 0.3431 0.6278 0.6987
vn -0.4780 0.3217 0.8174
vn 0.3499 0.9366 -0.0183
vn 0.8312 0.3273 0.4494
vn 0.5400 -0.7921 0.2846
vn 0.1197 -0.9894 -0.0825
vn -0.2401 -0.1032 0.9653
vn -0.3316 -0.9273 -0.1738
vn -0.5317 0.7413 0.4095
vn -0.0001 0.6493 0.7605
vn -0.0831 0.9345 -0.3461
vn -0.4990 0.2546 0.8283
vn -0.5409 -0.5943 0.5952
vn 0.6138 -0.7873 0.0574
vn -0.1278 0.4875 0.8637
vn 0.4035 0.3144 0.8593
vn -0.0232 -0.9960 -0.0862
vn -0.9099 0.3507 0.2214
vn -0.7108 0.6181 -0.3356
vn 0.5527 -0.5150 0.6552
vn 0.9037 0.1857 0.3859
vn -0.4771 0.5137 -0.7131
vn -0.0828 0.9922 -0.0931
vn 0.0161 -0.9208 0.3898
vn 0.5069 -0.6427 0.5745
vn -0.8201 0.4315 -0.3757
vn 0.6511 -0.7589 0.0098
vn 0.8303 -0.3510 0.4330
vn 0.2545 -0.8264 0.5024
vn 0.2456 -0.9670 -0.0671
vn 0.2809 0.5829 0.7624
vn 0.4707 0.2915 0.8327
vn -0.4330 -0.6422 0.6325
vn -0.2853 -0.4950 0.8207
vn 0.2235 0.7684 -0.5997
vn 0.3688 0.9295 0.0077
vn -0.0880 0.4585 0.8843
vn -0.1075 0.0163 0.9941
vn -0.0163 0.7664 0.6422
vn 0.3634 0.8298 0.4234
vn 0.4703 -0.8710 -0.1423
vn 0.1241 -0.9111 0.3930
vn 0.2571 -0.9146 -0.3121
vn 0.2533 -0.9140 -0.3170
vn -0.2182 0.6688 -0.7107
vn 0.2537 -0.9140 -0.3168
vn 0.1780 -0.9684 0.1747
vn -0.1375 0.5744 0.8069
vn -0.5170 0.4917 0.7007
vn 0.2968 -0.9435 0.1475
vn 0.3166 -0.6627 -0.6787
vn 0.8806 -0.1306 -0.4555
vn 0.3393 -0.1713 -0.9249
vn -0.8135 0.4200 -0.4023
vn -0.8138 -0.4499 -0.3679
vn -0.2522 -0.9670 -0.0358
vn 0.2025 -0.9281 0.3124
vn 0.3472 0.9374 -0.0274
vn 0.8169 -0.1157 -0.5651
vn -0.5972 -0.7650 -0.2410
vn -0.4287 -0.8982 -0.0976
vn -0.6043 0.1655 0.7794
vn -0.7735 0.3902 0.4994
vn 0.4023 0.9126 0.0728
vn 0.3680 0.6880 0.6255
vn 0.5319 -0.8264 -0.1849
vn 0.6419 -0.6078 -0.4674
vn 0.3790 0.8178 0.4331
vn 0.7693 0.3544 0.5315
vn -0.6540 0.5977 -0.4637
vn -0.6060 0.6299 0.4857
vn 0.5429 -0.7306 -0.4141
vn 0.2278 -0.8486 0.4775
vn 0.4728 -0.2637 0.8408
vn -0.0993 0.5303 0.8420
vn -0.5685 0.7760 0.2730
vn 0.4011 -0.9102 -0.1026
vn 0.0137 -0.8066 -0.5910
vn 0.0817 -0.9448 0.3173
vn 0.3421 -0.9394 -0.0220
vn 0.5805 -0.3212 0.7483
vn 0.4885 0.2922 0.8222
vn -0.0028 0.7881 0.6156
vn -0.0753 0.9264 -0.3689
vn -0.7282 -0.5874 -0.3530
vn -0.5463 -0.5948 0.5897
vn -0.2971 -0.9545 0.0274
vn 0.0996 -0.9407 0.3243
vn 0.8988 -0.2946 0.3248
vn 0.9062 -0.4066 -0.1158
vn 0.0257 -0.8446 -0.5348
vn -0.1556 -0.9442 -0.2903
vn -0.3404 -0.7038 0.6235
vn -0.0533 -0.8308 -0.5540
vn 0.4775 -0.2440 0.8441
vn 0.5605 -0.2094 0.8013
vn 0.4720 0.8064 0.3563
vn 0.5686 0.8137 -0.1205
vn -0.8931 0.4437 0.0746
vn -0.7050 0.4768 0.5250
vn -0.2419 -0.9627 -0.1213
vn -0.2439 -0.9624 -0.1198
vn 0.5290 -0.5339 0.6597
vn 0.7602 -0.5725 0.3072
vn -0.2360 -0.9650 -0.1147
vn -0.5554 -0.0737 0.8283
vn -0.6171 0.6226 0.4812
vn -0.7246 0.5067 0.4671
vn 0.2926 0.2575 0.9209
vn 0.5471 -0.1994 0.8129
vn 0.4023 -0.8977 0.1797
vn 0.3545 -0.9276 0.1180
vn -0.7988 -0.3326 -0.5014
vn -0.4967 0.2541 0.8299
vn -0.6496 0.4719 0.5961
vn -0.5203 -0.8068 -0.2799
vn 0.0813 -0.9853 -0.1503
vn 0.6743 -0.6410 0.3667
vn 0.5791 -0.8073 -0.1139
vn -0.7108 -0.6039 -0.3606
vn 0.4967 0.5862 0.6400
vn 0.3330 0.5694 0.7516
vn 0.3510 0.3802 -0.8557
vn 0.3964 0.3669 0.8415
vn -0.1152 0.0176 0.9932
vn -0.1557 -0.9471 -0.2807
vn -0.0317 -0.9215 -0.3870
vn 0.3178 0.5221 0.7914
vn 0.1528 0.7597 0.6321
vn 0.2150 -0.9703 -0.1113
vn 0.3286 -0.9429 -0.0548
vn -0.4496 0.6634 0.5981
vn -0.5620 0.4995 0.6593
vn 0.6284 -0.0526 0.7761
vn 0.7662 -0.2322 0.5991
vn -0.5995 -0.7560 0.2627
vn 0.4688 -0.7586 0.4525
vn -0.8317 0.5189 0.1976
vn -0.7302 0.6415 -0.2351
vn 0.2508 0.4038 0.8798
vn -0.0712 0.7244 0.6857
vn 0.4081 -0.8802 -0.2425
vn 0.3817 -0.9054 0.1862
vn -0.6411 0.5969 -0.4825
vn -0.7143 0.4142 -0.5641
vn 0.7901 -0.2506 0.5594
vn 0.9126 0.0392 0.4069
vn 0.2938 -0.5283 -0.7966
vn 0.3177 -0.8507 -0.4188
vn 0.1920 -0.9767 -0.0956
vn 0.4548 -0.7914 0.4084
vn 0.2658 0.4402 0.8577
vn 0.3101 0.4379 0.8439
vn 0.5858 0.3500 -0.7310
vn 0.6525 0.7382 0.1709
vn -0.5278 0.1895 0.8279
vn -0.3640 -0.0153 0.9313
vn 0.5010 -0.8179 0.2829
vn 0.1770 -0.9664 0.1866
vn -0.4884 0.8461 0.2135
vn -0.4045 0.6120 -0.6796
vn 0.5113 0.2722 0.8151
vn 0.4426 0.4911 0.7503
vn -0.0329 -0.5769 0.8162
vn -0.0599 -0.7777 -0.6258
vn 0.5464 0.7788 -0.3081
vn 0.5272 0.8388 -0.1358
# 178 vertex normals

vt 0.7894 0.0434 0.0000
vt 0.7849 0.0454 0.0000
vt 0.7885 0.0413 0.0000
vt 0.8053 0.0694 0.0000
vt 0.8086 0.0750 0.0000
vt 0.8047 0.0797 0.0000
vt 0.7768 0.0615 0.0000
vt 0.7805 0.0661 0.0000
vt 0.7752 0.0664 0.0000
vt 0.7987 0.0505 0.0000
vt 0.7994 0.0579 0.0000
vt 0.7927 0.0531 0.0000
vt 0.7943 0.0677 0.0000
vt 0.7946 0.0803 0.0000
vt 0.7887 0.0720 0.0000
vt 0.8046 0.0484 0.0000
vt 0.8093 0.0521 0.0000
vt 0.8096 0.0583 0.0000
vt 0.7823 0.0760 0.0000
vt 0.7821 0.0798 0.0000
vt 0.7778 0.0770 0.0000
vt 0.8040 0.0681 0.0000
vt 0.8028 0.0791 0.0000
vt 0.8000 0.0772 0.0000
vt 0.7779 0.0830 0.0000
vt 0.7803 0.0853 0.0000
vt 0.7763 0.0870 0.0000
vt 0.7888 0.0603 0.0000
vt 0.7929 0.0620 0.0000
vt 0.7834 0.0483 0.0000
vt 0.7886 0.0476 0.0000
vt 0.8015 0.0576 0.0000
vt 0.8070 0.0572 0.0000
vt 0.8007 0.0686 0.0000
vt 0.8071 0.0494 0.0000
vt 0.8041 0.0413 0.0000
vt 0.8026 0.0402 0.0000
vt 0.8015 0.0441 0.0000
vt 0.7956 0.0435 0.0000
vt 0.7813 0.0735 0.0000
vt 0.7748 0.0724 0.0000
vt 0.7733 0.0798 0.0000
vt 0.7737 0.0756 0.0000
vt 0.7773 0.0812 0.0000
vt 0.7889 0.0684 0.0000
vt 0.7896 0.0640 0.0000
vt 0.7838 0.0590 0.0000
vt 0.7837 0.0658 0.0000
vt 0.8098 0.0631 0.0000
vt 0.8113 0.0694 0.0000
vt 0.8073 0.0645 0.0000
vt 0.8119 0.0670 0.0000
vt 0.8111 0.0550 0.0000
vt 0.7829 0.0821 0.0000
vt 0.7772 0.0674 0.0000
vt 0.7831 0.0701 0.0000
vt 0.8005 0.0597 0.0000
vt 0.7939 0.0626 0.0000
vt 0.7776 0.0573 0.0000
vt 0.7799 0.0521 0.0000
vt 0.7807 0.0557 0.0000
vt 0.7968 0.0866 0.0000
vt 0.8009 0.0837 0.0000
vt 0.8012 0.0879 0.0000
vt 0.8062 0.0829 0.0000
vt 0.8042 0.0825 0.0000
vt 0.7876 0.0504 0.0000
vt 0.7913 0.0527 0.0000
vt 0.7916 0.0405 0.0000
vt 0.7923 0.0369 0.0000
vt 0.8144 0.0684 0.0000
vt 0.8081 0.0826 0.0000
vt 0.8136 0.0583 0.0000
vt 0.7862 0.0628 0.0000
vt 0.7859 0.0561 0.0000
vt 0.7932 0.0428 0.0000
vt 0.7907 0.0477 0.0000
vt 0.7775 0.0807 0.0000
vt 0.8009 0.0499 0.0000
vt 0.7940 0.0501 0.0000
vt 0.7995 0.0475 0.0000
vt 0.8113 0.0508 0.0000
vt 0.8069 0.0436 0.0000
vt 0.7854 0.0557 0.0000
vt 0.7854 0.0486 0.0000
vt 0.7828 0.0524 0.0000
vt 0.7832 0.0450 0.0000
vt 0.7899 0.0368 0.0000
vt 0.8046 0.0883 0.0000
vt 0.7731 0.0826 0.0000
vt 0.7853 0.0686 0.0000
vt 0.7940 0.0834 0.0000
vt 0.7977 0.0827 0.0000
vt 0.7815 0.0483 0.0000
vt 0.8016 0.0471 0.0000
vt 0.7996 0.0448 0.0000
vt 0.7793 0.0509 0.0000
vt 0.7845 0.0751 0.0000
vt 0.7924 0.0476 0.0000
vt 0.7771 0.0562 0.0000
vt 0.7733 0.0868 0.0000
vt 0.8046 0.0395 0.0000
vt 0.7760 0.0619 0.0000
# 103 texture coords

g Forest_B_Rock_05
usemtl ForestPack_Trees
s off
f 1/1/1 2/2/1 3/3/1 
f 4/4/2 5/5/2 6/6/2 
f 7/7/3 8/8/3 9/9/3 
f 10/10/4 11/11/4 12/12/4 
f 13/13/5 14/14/5 15/15/5 
f 16/16/6 17/17/6 18/18/6 
f 19/19/7 20/20/7 21/21/7 
f 22/22/8 23/23/8 24/24/8 
f 25/25/9 26/26/9 27/27/9 
f 28/28/10 12/12/10 29/29/10 
f 30/30/11 2/2/11 31/31/11 
f 32/32/12 10/10/12 33/33/12 
f 24/24/13 13/13/13 34/34/13 
f 35/35/14 16/16/14 36/36/14 
f 37/37/15 38/38/15 39/39/15 
f 40/40/16 21/21/16 41/41/16 
f 42/42/17 43/43/17 44/44/17 
f 45/45/18 46/46/18 13/13/18 
f 47/47/19 48/48/19 7/7/19 
f 49/49/20 50/50/20 51/51/20 
f 33/33/21 51/51/21 32/32/21 
f 52/52/22 18/18/22 53/53/22 
f 24/24/23 14/14/23 13/13/23 
f 26/26/24 44/44/24 54/54/24 
f 41/41/25 55/55/25 56/56/25 
f 13/13/26 57/57/26 34/34/26 
f 58/58/27 12/12/27 11/11/27 
f 59/59/28 60/60/28 61/61/28 
f 26/62/29 62/63/29 27/64/29 
f 63/65/30 64/66/30 5/5/30 
f 28/28/31 65/67/31 66/68/31 
f 67/69/32 37/70/32 39/39/32 
f 68/71/33 69/72/33 50/50/33 
f 53/53/34 70/73/34 52/52/34 
f 46/46/35 45/45/35 71/74/35 
f 28/28/36 72/75/36 65/67/36 
f 63/65/37 27/64/37 64/66/37 
f 31/31/38 2/2/38 1/1/38 
f 1/1/39 73/76/39 74/77/39 
f 20/20/40 75/78/40 21/21/40 
f 41/41/41 21/21/41 75/78/41 
f 76/79/42 33/33/42 10/10/42 
f 10/10/43 77/80/43 78/81/43 
f 54/54/44 44/44/44 20/20/44 
f 54/54/45 20/20/45 15/15/45 
f 53/53/46 79/82/46 70/73/46 
f 80/83/47 79/82/47 35/35/47 
f 13/13/48 58/58/48 57/57/48 
f 13/13/49 46/46/49 58/58/49 
f 33/33/50 49/49/50 51/51/50 
f 33/33/51 16/16/51 18/18/51 
f 81/84/52 82/85/52 65/67/52 
f 46/46/53 71/74/53 72/75/53 
f 81/84/54 47/47/54 83/86/54 
f 61/61/55 47/47/55 59/59/55 
f 52/52/56 70/73/56 68/71/56 
f 61/61/57 83/86/57 47/47/57 
f 61/61/58 60/60/58 83/86/58 
f 34/34/59 57/57/59 22/22/59 
f 34/34/60 22/22/60 24/24/60 
f 41/41/61 44/44/61 43/43/61 
f 9/9/62 41/41/62 43/43/62 
f 3/3/63 37/70/63 67/69/63 
f 3/3/64 84/87/64 85/88/64 
f 63/65/65 86/89/65 27/64/65 
f 87/90/66 25/25/66 27/27/66 
f 45/45/67 48/48/67 71/74/67 
f 41/41/68 56/56/68 40/40/68 
f 36/36/69 80/83/69 35/35/69 
f 85/88/70 37/70/70 3/3/70 
f 48/48/71 8/8/71 7/7/71 
f 88/91/72 48/48/72 45/45/72 
f 26/62/73 54/92/73 89/93/73 
f 26/62/74 89/93/74 62/63/74 
f 16/16/75 38/38/75 36/36/75 
f 16/16/76 33/33/76 76/79/76 
f 2/2/77 30/30/77 90/94/77 
f 3/3/78 2/2/78 84/87/78 
f 38/38/79 16/16/79 91/95/79 
f 92/96/80 39/39/80 38/38/80 
f 50/50/81 69/72/81 5/5/81 
f 5/5/82 51/51/82 50/50/82 
f 2/2/83 90/94/83 84/87/83 
f 72/75/84 28/28/84 46/46/84 
f 46/46/85 28/28/85 29/29/85 
f 51/51/86 22/22/86 32/32/86 
f 51/51/87 5/5/87 4/4/87 
f 30/30/88 60/60/88 90/94/88 
f 59/59/89 93/97/89 60/60/89 
f 94/98/90 15/15/90 20/20/90 
f 15/15/91 94/98/91 56/56/91 
f 74/77/92 95/99/92 66/68/92 
f 92/96/93 77/80/93 39/39/93 
f 33/33/94 18/18/94 49/49/94 
f 52/52/95 49/49/95 18/18/95 
f 44/44/96 25/25/96 87/90/96 
f 44/44/97 26/26/97 25/25/97 
f 71/74/98 48/48/98 47/47/98 
f 71/74/99 47/47/99 72/75/99 
f 67/69/100 73/76/100 1/1/100 
f 3/3/101 67/69/101 1/1/101 
f 59/59/102 96/100/102 93/97/102 
f 7/7/103 59/59/103 47/47/103 
f 75/78/104 20/20/104 44/44/104 
f 41/41/105 75/78/105 44/44/105 
f 66/68/106 12/12/106 28/28/106 
f 77/80/107 66/68/107 95/99/107 
f 17/17/108 53/53/108 18/18/108 
f 17/17/109 79/82/109 53/53/109 
f 62/63/110 64/66/110 27/64/110 
f 89/93/111 23/23/111 62/63/111 
f 15/15/112 56/56/112 88/91/112 
f 88/91/113 56/56/113 55/55/113 
f 74/77/114 66/68/114 65/67/114 
f 31/31/115 1/1/115 74/77/115 
f 15/15/116 88/91/116 45/45/116 
f 45/45/117 13/13/117 15/15/117 
f 23/23/118 4/4/118 6/6/118 
f 23/23/119 6/6/119 62/63/119 
f 10/10/120 12/12/120 77/80/120 
f 66/68/121 77/80/121 12/12/121 
f 82/85/122 30/30/122 31/31/122 
f 60/60/123 30/30/123 83/86/123 
f 86/101/124 87/90/124 27/27/124 
f 89/93/125 14/14/125 24/24/125 
f 23/23/126 89/93/126 24/24/126 
f 88/91/127 8/8/127 48/48/127 
f 8/8/128 88/91/128 55/55/128 
f 65/67/129 31/31/129 74/77/129 
f 65/67/130 82/85/130 31/31/130 
f 44/44/131 87/90/131 42/42/131 
f 92/96/132 38/38/132 91/95/132 
f 76/79/133 10/10/133 78/81/133 
f 80/83/134 36/36/134 85/102/134 
f 29/29/135 12/12/135 58/58/135 
f 29/29/136 58/58/136 46/46/136 
f 97/103/137 59/59/137 7/7/137 
f 9/9/138 97/103/138 7/7/138 
f 78/81/139 91/95/139 76/79/139 
f 76/79/140 91/95/140 16/16/140 
f 94/98/141 20/20/141 19/19/141 
f 56/56/142 94/98/142 40/40/142 
f 4/4/143 22/22/143 51/51/143 
f 4/4/144 23/23/144 22/22/144 
f 77/80/145 95/99/145 39/39/145 
f 39/39/146 95/99/146 74/77/146 
f 9/9/147 8/8/147 55/55/147 
f 9/9/148 55/55/148 41/41/148 
f 62/63/149 6/6/149 64/66/149 
f 6/6/150 5/5/150 64/66/150 
f 57/57/151 58/58/151 11/11/151 
f 57/57/152 32/32/152 22/22/152 
f 81/84/153 83/86/153 82/85/153 
f 30/30/154 82/85/154 83/86/154 
f 5/5/155 69/72/155 63/65/155 
f 63/65/156 69/72/156 86/89/156 
f 73/76/157 39/39/157 74/77/157 
f 67/69/158 39/39/158 73/76/158 
f 90/94/159 93/97/159 84/87/159 
f 60/60/160 93/97/160 90/94/160 
f 40/40/161 94/98/161 19/19/161 
f 21/21/162 40/40/162 19/19/162 
f 32/32/163 57/57/163 11/11/163 
f 11/11/164 10/10/164 32/32/164 
f 85/102/165 36/36/165 37/37/165 
f 36/36/166 38/38/166 37/37/166 
f 89/93/167 54/92/167 14/14/167 
f 54/92/168 15/15/168 14/14/168 
f 81/84/169 65/67/169 72/75/169 
f 47/47/170 81/84/170 72/75/170 
f 49/49/171 52/52/171 50/50/171 
f 68/71/172 50/50/172 52/52/172 
f 92/96/173 78/81/173 77/80/173 
f 78/81/174 92/96/174 91/95/174 
f 9/9/175 96/100/175 97/103/175 
f 97/103/176 96/100/176 59/59/176 
f 17/17/177 16/16/177 35/35/177 
f 35/35/178 79/82/178 17/17/178 
# 0 polygons - 178 triangles

