# 3ds Max Wavefront OBJ Exporter v0.97b - (c)2007 guruware
# File Created: 20.05.2016 21:20:13

mtllib Forest_B_Rock_03.mtl

#
# object Forest_B_Rock_03
#

v  89.0524 23.4524 7.3860
v  78.3069 10.0325 24.7383
v  84.5373 5.9898 -0.1623
v  -36.6658 48.8581 -31.0308
v  -50.9580 16.9173 -37.2949
v  -67.7590 28.2768 -21.7811
v  19.1938 5.3537 60.5518
v  5.0911 29.4775 54.3151
v  -7.6553 0.0001 57.8376
v  53.9889 65.3881 -25.4364
v  23.9294 79.0146 -21.9871
v  67.4859 71.4011 3.8417
v  -1.2492 87.3084 7.9425
v  -56.6358 64.7039 31.7373
v  0.6841 74.1147 42.0002
v  51.2065 33.0411 -54.1851
v  37.5120 19.2273 -63.6718
v  4.7513 31.1660 -66.4352
v  -35.6444 51.9108 57.6827
v  -56.7261 57.5842 54.3042
v  -43.4946 28.7969 69.9300
v  -30.9865 58.8108 -25.0775
v  -63.9742 40.8826 -13.7943
v  -53.2946 59.4860 -0.7018
v  -78.6148 31.6099 50.7308
v  -85.4581 44.1505 31.3620
v  -89.0536 18.4040 19.5330
v  43.4206 76.2578 29.2531
v  23.6475 91.9753 2.8744
v  71.5640 14.8465 34.9885
v  79.2038 36.2171 25.0105
v  18.6817 72.8405 -30.6160
v  10.0915 47.4140 -55.7597
v  -25.2407 72.6005 -9.9552
v  73.8649 5.0343 -41.7735
v  78.7407 7.5599 -35.5447
v  68.0029 31.4148 -41.1033
v  79.0513 45.6910 -14.5008
v  -25.7663 41.7277 58.4284
v  -43.4946 28.7968 69.9300
v  -26.2538 2.6698 67.3480
v  -60.2186 0.0001 60.7714
v  -41.6362 0.0001 65.8437
v  -68.8402 29.5235 64.6965
v  28.4732 84.4079 27.6201
v  45.4716 43.3764 57.5474
v  14.4854 45.2928 54.4276
v  -15.9534 31.7374 -60.3149
v  -35.0716 13.8519 -54.2377
v  -22.1555 46.2031 -45.8375
v  -28.3647 13.2521 -58.2832
v  20.4470 12.8301 -69.9265
v  -68.0175 59.6202 40.2618
v  4.4221 53.1672 48.9106
v  13.4554 78.5938 -21.7883
v  33.3148 4.5571 57.5694
v  55.4882 7.3860 49.9768
v  45.2469 19.9501 53.6443
v  -79.7411 34.5396 2.6867
v  -72.0640 7.6492 -10.1976
v  -75.9146 20.5782 -11.6255
v  76.9454 50.6323 28.6980
v  86.1750 17.4088 -12.5640
v  -25.0741 0.0001 -49.2467
v  -67.5521 0.0001 -9.0939
v  6.0363 0.0000 -63.2532
v  32.1387 59.3456 47.1356
v  59.1777 52.4938 44.3689
v  83.9584 35.5118 -9.0032
v  82.4447 52.9557 13.7393
v  34.6584 0.0001 -64.4112
v  61.6201 0.0001 -49.4873
v  60.2494 26.2369 42.9755
v  72.6536 0.0001 25.0277
v  76.1991 0.0001 -30.1236
v  -80.8053 0.0001 18.0608
v  -69.3130 0.0002 47.0489
v  -72.9724 52.1440 15.5039
v  66.9933 3.1178 38.2102
v  57.6135 0.0001 45.8251
v  -26.7284 61.9774 53.5084
v  38.4508 0.0002 53.5563
v  12.5801 0.0004 59.1967
# 83 vertices

vn 0.8929 -0.2806 -0.3521
vn -0.4819 0.7937 0.3713
vn -0.1334 -0.9756 0.1743
vn 0.3551 0.3423 0.8699
vn -0.2139 -0.3634 0.9067
vn 0.2193 0.8920 0.3952
vn -0.0143 -0.8815 0.4719
vn -0.5388 0.5116 0.6693
vn -0.9461 -0.3236 -0.0165
vn 0.4105 -0.2196 0.8850
vn 0.8275 -0.5604 -0.0342
vn 0.2420 0.7296 0.6397
vn -0.4525 0.1196 0.8837
vn 0.5308 0.8457 0.0546
vn 0.8335 0.4866 0.2618
vn 0.4291 -0.8817 0.1960
vn -0.2580 -0.9450 -0.2010
vn -0.1517 -0.3645 0.9188
vn -0.0906 -0.9859 0.1405
vn -0.6060 0.6770 0.4177
vn -0.2280 0.6527 0.7225
vn -0.2321 0.9726 -0.0135
vn -0.4389 0.1866 0.8790
vn -0.6935 -0.5499 0.4654
vn 0.2053 -0.9529 0.2232
vn -0.2554 0.3861 0.8864
vn 0.3929 0.4216 0.8173
vn 0.3252 -0.9456 -0.0110
vn -0.9287 0.2702 0.2539
vn -0.7076 0.6477 -0.2823
vn 0.5624 -0.3936 0.7272
vn 0.9033 0.3786 0.2016
vn -0.5475 0.5792 -0.6039
vn -0.2274 0.9448 -0.2360
vn 0.1664 -0.7661 0.6209
vn 0.5257 -0.5157 0.6766
vn -0.8706 0.3882 -0.3022
vn 0.8615 -0.5066 -0.0348
vn 0.9627 0.1213 0.2417
vn -0.1735 -0.8968 0.4070
vn -0.6411 -0.5872 0.4942
vn -0.2042 -0.2993 0.9320
vn -0.0365 0.9028 -0.4285
vn 0.4839 0.8743 -0.0382
vn -0.2448 0.3823 0.8910
vn -0.1136 -0.3107 0.9437
vn -0.2501 0.7359 0.6293
vn 0.2037 0.8476 0.4899
vn 0.6535 -0.7516 -0.0899
vn 0.2335 -0.7504 0.6184
vn 0.6964 -0.7176 -0.0097
vn 0.4770 -0.8662 -0.1489
vn -0.3326 0.7387 -0.5863
vn 0.6113 -0.7796 -0.1358
vn 0.5192 -0.8357 0.1792
vn -0.2950 0.5802 0.7592
vn -0.4963 0.4744 0.7270
vn 0.1082 -0.4590 -0.8818
vn 0.9342 0.1670 -0.3154
vn 0.5037 -0.0324 -0.8632
vn -0.8608 0.3629 -0.3568
vn -0.8587 -0.4147 -0.3010
vn 0.0460 -0.9091 0.4140
vn 0.2188 -0.9519 0.2146
vn 0.5241 0.8511 0.0293
vn 0.8931 0.1649 -0.4185
vn -0.2182 -0.9682 0.1227
vn -0.3095 -0.9181 0.2476
vn -0.6287 0.1068 0.7703
vn -0.7717 0.3350 0.5406
vn 0.6163 0.7718 0.1566
vn 0.2488 0.7345 0.6314
vn 0.7933 -0.5908 -0.1469
vn 0.8385 -0.2852 -0.4643
vn 0.5537 0.6455 0.5261
vn 0.6509 0.5507 0.5225
vn -0.7191 0.6160 -0.3216
vn -0.6229 0.6600 0.4200
vn 0.7876 -0.4402 -0.4311
vn 0.2687 -0.7221 0.6375
vn 0.4561 -0.1777 0.8720
vn -0.2804 0.5826 0.7629
vn -0.6146 0.6754 0.4075
vn 0.6988 -0.7112 -0.0770
vn 0.3426 -0.8576 -0.3835
vn -0.1005 -0.5987 0.7946
vn 0.2311 -0.9109 0.3417
vn 0.6662 0.4320 0.6079
vn -0.2151 0.7822 0.5847
vn -0.2804 0.9563 0.0831
vn -0.8027 -0.5175 -0.2965
vn -0.6851 -0.5507 0.4768
vn -0.0545 -0.8566 0.5130
vn 0.2405 -0.7089 0.6630
vn 0.9700 0.1870 0.1556
vn 0.9728 0.0738 -0.2196
vn 0.3480 -0.8625 -0.3674
vn 0.2028 -0.9772 -0.0630
vn 0.2043 0.9145 0.3491
vn 0.3493 0.9369 -0.0158
vn -0.9163 0.3769 0.1353
vn -0.6881 0.4347 0.5810
vn 0.6325 -0.3406 0.6957
vn 0.8995 -0.4227 0.1104
vn -0.5533 0.6185 0.5580
vn -0.7092 0.4796 0.5168
vn 0.6480 -0.7527 0.1159
vn -0.8490 -0.3366 -0.4074
vn -0.4750 0.1872 0.8598
vn -0.6089 0.4406 0.6596
vn -0.3465 -0.9166 0.1993
vn 0.9342 -0.3522 0.0563
vn -0.7946 -0.5266 -0.3021
vn 0.5589 0.4208 -0.7146
vn 0.1637 -0.8892 -0.4273
vn -0.0661 -0.9837 -0.1674
vn -0.0358 -0.9115 0.4097
vn 0.2079 -0.9482 0.2403
vn -0.4909 0.5952 0.6362
vn -0.5358 0.5540 0.6371
vn 0.8128 0.2348 0.5331
vn 0.4439 -0.8920 -0.0853
vn -0.8395 0.4775 0.2594
vn -0.7200 0.6807 -0.1352
vn -0.0444 0.4622 0.8857
vn -0.2749 0.6339 0.7229
vn 0.6907 -0.7231 -0.0102
vn 0.6495 -0.7511 0.1185
vn -0.6190 0.6385 -0.4573
vn -0.7729 0.3772 -0.5103
vn 0.9205 0.1973 0.3372
vn 0.8818 0.4304 0.1926
vn 0.5711 -0.4130 -0.7094
vn 0.6577 -0.7216 -0.2163
vn 0.1756 -0.9547 0.2403
vn 0.3069 -0.8802 0.3621
vn -0.0438 0.5636 0.8249
vn 0.2467 0.6586 0.7109
vn 0.7593 0.3803 -0.5280
vn 0.7377 0.6506 0.1804
vn -0.4987 0.1576 0.8523
vn -0.2048 -0.2850 0.9364
vn -0.4867 0.8416 0.2343
vn -0.4595 0.6765 -0.5754
vn 0.1810 -0.8303 -0.5272
vn -0.2041 -0.9673 -0.1504
vn -0.0714 -0.9869 -0.1446
# 147 vertex normals

vt 0.6578 0.0849 0.0000
vt 0.6522 0.0906 0.0000
vt 0.6522 0.0820 0.0000
vt 0.6860 0.0436 0.0000
vt 0.6832 0.0320 0.0000
vt 0.6907 0.0319 0.0000
vt 0.7317 0.0668 0.0000
vt 0.7235 0.0622 0.0000
vt 0.7330 0.0569 0.0000
vt 0.6739 0.0715 0.0000
vt 0.6836 0.0664 0.0000
vt 0.6766 0.0819 0.0000
vt 0.6958 0.0629 0.0000
vt 0.7062 0.0449 0.0000
vt 0.7077 0.0634 0.0000
vt 0.6631 0.0622 0.0000
vt 0.6608 0.0552 0.0000
vt 0.6697 0.0482 0.0000
vt 0.7148 0.0502 0.0000
vt 0.7116 0.0443 0.0000
vt 0.7224 0.0455 0.0000
vt 0.6876 0.0475 0.0000
vt 0.6927 0.0359 0.0000
vt 0.6964 0.0432 0.0000
vt 0.7143 0.0353 0.0000
vt 0.7074 0.0352 0.0000
vt 0.7055 0.0274 0.0000
vt 0.7048 0.0765 0.0000
vt 0.7016 0.0874 0.0000
vt 0.6924 0.0717 0.0000
vt 0.7264 0.0874 0.0000
vt 0.7275 0.0915 0.0000
vt 0.7182 0.0905 0.0000
vt 0.6814 0.0628 0.0000
vt 0.6735 0.0534 0.0000
vt 0.6922 0.0526 0.0000
vt 0.6524 0.0677 0.0000
vt 0.6530 0.0705 0.0000
vt 0.6612 0.0685 0.0000
vt 0.6655 0.0780 0.0000
vt 0.7184 0.0527 0.0000
vt 0.7220 0.0454 0.0000
vt 0.7311 0.0497 0.0000
vt 0.7266 0.0331 0.0000
vt 0.7313 0.0429 0.0000
vt 0.7192 0.0378 0.0000
vt 0.7021 0.0723 0.0000
vt 0.7192 0.0756 0.0000
vt 0.7184 0.0660 0.0000
vt 0.6743 0.0435 0.0000
vt 0.6760 0.0348 0.0000
vt 0.6803 0.0457 0.0000
vt 0.6737 0.0363 0.0000
vt 0.6621 0.0486 0.0000
vt 0.7083 0.0416 0.0000
vt 0.7155 0.0633 0.0000
vt 0.6851 0.0637 0.0000
vt 0.7319 0.0723 0.0000
vt 0.7301 0.0804 0.0000
vt 0.7265 0.0766 0.0000
vt 0.6991 0.0320 0.0000
vt 0.6936 0.0249 0.0000
vt 0.6943 0.0285 0.0000
vt 0.7133 0.0878 0.0000
vt 0.6560 0.0784 0.0000
vt 0.6715 0.0314 0.0000
vt 0.6916 0.0228 0.0000
vt 0.6622 0.0414 0.0000
vt 0.7130 0.0723 0.0000
vt 0.7150 0.0807 0.0000
vt 0.6616 0.0916 0.0000
vt 0.6620 0.0798 0.0000
vt 0.6680 0.0873 0.0000
vt 0.6558 0.0509 0.0000
vt 0.6517 0.0622 0.0000
vt 0.7235 0.0826 0.0000
vt 0.6477 0.0900 0.0000
vt 0.6499 0.0714 0.0000
vt 0.7048 0.0218 0.0000
vt 0.7191 0.0262 0.0000
vt 0.7021 0.0379 0.0000
vt 0.7306 0.0859 0.0000
vt 0.7316 0.0905 0.0000
vt 0.7324 0.0817 0.0000
vt 0.7117 0.0537 0.0000
vt 0.7335 0.0744 0.0000
vt 0.7103 0.0918 0.0000
vt 0.7335 0.0650 0.0000
# 88 texture coords

g Forest_B_Rock_03
usemtl ForestPack_Trees
s off
f 1/1/1 2/2/1 3/3/1 
f 4/4/2 5/5/2 6/6/2 
f 7/7/3 8/8/3 9/9/3 
f 10/10/4 11/11/4 12/12/4 
f 13/13/5 14/14/5 15/15/5 
f 16/16/6 17/17/6 18/18/6 
f 19/19/7 20/20/7 21/21/7 
f 22/22/8 23/23/8 24/24/8 
f 25/25/9 26/26/9 27/27/9 
f 28/28/10 12/29/10 29/30/10 
f 30/31/11 2/32/11 31/33/11 
f 32/34/12 10/10/12 33/35/12 
f 24/24/13 13/13/13 34/36/13 
f 17/17/14 16/16/14 35/37/14 
f 36/38/15 37/39/15 38/40/15 
f 39/41/16 21/21/16 40/42/16 41/43/16 
f 42/44/17 43/45/17 44/46/17 
f 15/15/18 45/47/18 13/13/18 
f 46/48/19 47/49/19 7/7/19 
f 48/50/20 49/51/20 50/52/20 
f 33/35/21 50/52/21 32/34/21 
f 51/53/22 18/18/22 52/54/22 
f 24/24/23 14/14/23 13/13/23 
f 26/26/24 44/46/24 53/55/24 
f 41/43/25 8/8/25 54/56/25 
f 13/13/26 55/57/26 34/36/26 
f 29/30/27 12/12/27 11/11/27 
f 56/58/28 57/59/28 58/60/28 
f 26/26/29 59/61/29 27/27/29 
f 60/62/30 61/63/30 5/5/30 
f 28/28/31 62/64/31 12/29/31 
f 63/65/32 36/38/32 38/40/32 
f 64/66/33 65/67/33 49/51/33 
f 52/54/34 66/68/34 51/53/34 
f 45/47/35 15/15/35 67/69/35 
f 28/28/36 68/70/36 62/64/36 
f 60/62/37 27/27/37 61/63/37 
f 31/71/38 2/2/38 1/1/38 
f 1/1/39 69/72/39 70/73/39 
f 20/20/40 44/46/40 21/21/40 
f 53/55/41 44/46/41 20/20/41 
f 53/55/42 20/20/42 15/15/42 
f 52/54/43 71/74/43 66/68/43 
f 72/75/44 71/74/44 17/17/44 
f 13/13/45 29/30/45 55/57/45 
f 13/13/46 45/47/46 29/30/46 
f 33/35/47 48/50/47 50/52/47 
f 33/35/48 16/16/48 18/18/48 
f 68/70/49 31/33/49 62/64/49 
f 45/47/50 67/69/50 68/70/50 
f 68/70/51 46/48/51 73/76/51 
f 58/60/52 46/48/52 56/58/52 
f 51/53/53 66/68/53 64/66/53 
f 58/60/54 73/76/54 46/48/54 
f 58/60/55 57/59/55 73/76/55 
f 34/36/56 55/57/56 22/22/56 
f 34/36/57 22/22/57 24/24/57 
f 9/9/58 41/43/58 43/45/58 
f 3/3/59 36/38/59 63/65/59 
f 3/3/60 74/77/60 75/78/60 
f 60/62/61 76/79/61 27/27/61 
f 77/80/62 25/25/62 27/27/62 
f 15/15/63 47/49/63 67/69/63 
f 41/43/64 54/56/64 39/41/64 
f 35/37/65 72/75/65 17/17/65 
f 75/78/66 36/38/66 3/3/66 
f 47/49/67 8/8/67 7/7/67 
f 54/56/68 47/49/68 15/15/68 
f 26/26/69 53/55/69 78/81/69 
f 26/26/70 78/81/70 59/61/70 
f 16/16/71 37/39/71 35/37/71 
f 16/16/72 33/35/72 10/10/72 
f 2/32/73 30/31/73 79/82/73 
f 3/3/74 2/2/74 74/77/74 
f 37/39/75 16/16/75 10/10/75 
f 10/10/76 38/40/76 37/39/76 
f 49/51/77 65/67/77 5/5/77 
f 5/5/78 50/52/78 49/51/78 
f 2/32/79 79/82/79 74/83/79 
f 68/70/80 28/28/80 45/47/80 
f 45/47/81 28/28/81 29/30/81 
f 50/52/82 22/22/82 32/34/82 
f 50/52/83 5/5/83 4/4/83 
f 30/31/84 57/59/84 79/82/84 
f 56/58/85 80/84/85 57/59/85 
f 81/85/86 15/15/86 20/20/86 
f 15/15/87 81/85/87 54/56/87 
f 10/10/88 12/12/88 38/40/88 
f 33/35/89 18/18/89 48/50/89 
f 51/53/90 48/50/90 18/18/90 
f 44/46/91 25/25/91 77/80/91 
f 44/46/92 26/26/92 25/25/92 
f 67/69/93 47/49/93 46/48/93 
f 67/69/94 46/48/94 68/70/94 
f 63/65/95 69/72/95 1/1/95 
f 3/3/96 63/65/96 1/1/96 
f 56/58/97 82/86/97 80/84/97 
f 7/7/98 56/58/98 46/48/98 
f 17/17/99 52/54/99 18/18/99 
f 17/17/100 71/74/100 52/54/100 
f 59/61/101 61/63/101 27/27/101 
f 78/81/102 23/23/102 59/61/102 
f 70/87/103 12/29/103 62/64/103 
f 31/71/104 1/1/104 70/73/104 
f 23/23/105 4/4/105 6/6/105 
f 23/23/106 6/6/106 59/61/106 
f 57/59/107 30/31/107 73/76/107 
f 76/79/108 77/80/108 27/27/108 
f 78/81/109 14/14/109 24/24/109 
f 23/23/110 78/81/110 24/24/110 
f 54/56/111 8/8/111 47/49/111 
f 62/64/112 31/33/112 70/87/112 
f 44/46/113 77/80/113 42/44/113 
f 72/75/114 35/37/114 75/78/114 
f 83/88/115 56/58/115 7/7/115 
f 9/9/116 83/88/116 7/7/116 
f 81/85/117 20/20/117 19/19/117 
f 54/56/118 81/85/118 39/41/118 
f 4/4/119 22/22/119 50/52/119 
f 4/4/120 23/23/120 22/22/120 
f 38/40/121 12/12/121 70/73/121 
f 9/9/122 8/8/122 41/43/122 
f 59/61/123 6/6/123 61/63/123 
f 6/6/124 5/5/124 61/63/124 
f 55/57/125 29/30/125 11/11/125 
f 55/57/126 32/34/126 22/22/126 
f 68/70/127 73/76/127 31/33/127 
f 30/31/128 31/33/128 73/76/128 
f 5/5/129 65/67/129 60/62/129 
f 60/62/130 65/67/130 76/79/130 
f 69/72/131 38/40/131 70/73/131 
f 63/65/132 38/40/132 69/72/132 
f 79/82/133 80/84/133 74/83/133 
f 57/59/134 80/84/134 79/82/134 
f 39/41/135 81/85/135 19/19/135 
f 21/21/136 39/41/136 19/19/136 
f 32/34/137 55/57/137 11/11/137 
f 11/11/138 10/10/138 32/34/138 
f 75/78/139 35/37/139 36/38/139 
f 35/37/140 37/39/140 36/38/140 
f 78/81/141 53/55/141 14/14/141 
f 53/55/142 15/15/142 14/14/142 
f 48/50/143 51/53/143 49/51/143 
f 64/66/144 49/51/144 51/53/144 
f 83/88/145 82/86/145 56/58/145 
f 44/46/146 43/45/146 40/42/146 21/21/146 
f 43/45/147 41/43/147 40/42/147 
# 2 polygons - 145 triangles

