# 3ds Max Wavefront OBJ Exporter v0.97b - (c)2007 guruware
# File Created: 20.05.2016 21:20:13

mtllib Forest_B_Rock_04.mtl

#
# object Forest_B_Rock_04
#

v  -74.2862 17.1755 -3.2932
v  -67.7486 6.6525 -23.0535
v  -69.4057 6.2710 5.8309
v  30.4157 25.7489 28.9101
v  44.5472 9.2920 24.3562
v  58.3812 15.8078 8.6655
v  -5.4639 3.4941 -49.1491
v  8.9570 18.9737 -51.8837
v  15.0444 0.0000 -45.9533
v  -49.9936 49.7589 22.3240
v  -16.5243 45.9195 20.9973
v  -57.5695 61.6517 -9.5759
v  14.8114 50.5661 -19.1390
v  60.2739 41.4318 -27.7893
v  24.6878 44.3270 -44.3229
v  -40.7000 19.3211 39.8979
v  -27.6389 10.3095 44.1090
v  -2.8792 15.7512 52.6164
v  43.5499 30.8109 -45.5612
v  58.3157 35.0911 -39.3255
v  45.4131 16.9124 -48.3149
v  24.9606 30.0589 26.7105
v  57.5800 23.6441 4.3772
v  53.6381 35.8983 -4.2524
v  67.9759 20.2034 -34.2244
v  73.1439 27.4699 -25.0333
v  72.3642 12.2480 -19.5596
v  -21.1352 50.3912 -37.0458
v  -10.9010 56.6229 -19.3266
v  -63.6216 7.6405 -38.3003
v  -73.3025 26.4971 -24.7529
v  -12.7867 38.9517 30.6564
v  -8.2681 23.6866 46.8829
v  24.2058 36.0488 10.1890
v  -60.7458 0.0001 33.1219
v  -65.6538 5.4639 29.3817
v  -59.8005 21.0033 33.1319
v  -73.1836 35.7115 12.9969
v  34.2856 24.2335 -48.7063
v  30.9459 0.0001 -50.1193
v  54.3439 0.0001 -39.8121
v  41.5497 0.0000 -45.2412
v  60.7714 19.0338 -42.1028
v  13.2835 49.7564 -44.6576
v  -4.1108 55.5376 -36.0840
v  -25.6250 26.2159 -49.1104
v  6.1283 30.8387 -52.4780
v  13.9833 16.8711 50.2015
v  31.9570 8.1056 39.9557
v  16.7303 24.9196 42.8068
v  25.5738 7.6902 44.5357
v  -13.7127 6.8927 51.2236
v  66.1173 37.6755 -30.5764
v  16.3662 6.8826 -48.8938
v  20.8377 27.1647 -49.9232
v  -6.9312 41.0790 23.0250
v  -6.4704 54.0395 -13.3652
v  -23.9604 2.7225 -45.3578
v  -48.3151 3.4791 -46.9099
v  -37.7488 11.0864 -47.6264
v  68.6629 21.6552 -8.9279
v  60.5315 5.6419 0.3234
v  63.9556 12.6342 0.3301
v  -65.9887 29.0204 -37.5708
v  -63.9060 56.2052 -21.3807
v  -72.5144 13.1590 14.0022
v  23.9426 0.0000 37.4654
v  56.8682 0.0000 0.6563
v  -2.3800 0.0000 48.6773
v  -6.7162 40.5367 -47.9033
v  -40.9916 33.6547 -44.8329
v  -74.5487 26.9928 8.9037
v  -75.1728 37.1377 -18.4087
v  -45.0062 38.5330 30.4547
v  -66.9436 60.4130 -0.3865
v  -57.8751 41.4170 25.8715
v  -24.0764 0.0000 44.3749
v  -49.1914 0.0000 36.5602
v  -44.7218 28.7423 -47.6766
v  -66.5439 16.0214 -36.6186
v  -53.4289 13.2403 -47.6903
v  -61.7677 0.0001 -20.3532
v  -62.8462 0.0001 26.2605
v  66.3364 0.0001 -17.9471
v  60.1203 0.0001 -32.5653
v  14.2015 35.4951 -50.7328
v  67.9077 33.2986 -16.3981
v  -58.7745 0.0001 -37.4402
v  -52.1553 30.6135 33.6884
v  -63.0969 31.9769 27.4185
v  -47.9145 0.0000 -39.6906
v  38.9725 36.6539 -45.4057
v  -75.3020 46.6608 -9.1837
v  -28.4788 0.0000 -42.1807
v  -1.4118 0.0000 -47.2847
# 95 vertices

vn -0.8926 0.0571 -0.4473
vn 0.6278 -0.6972 0.3461
vn 0.1040 0.9583 -0.2662
vn 0.1205 -0.3215 0.9392
vn 0.1613 0.1772 0.9709
vn -0.3205 -0.9470 -0.0221
vn 0.3229 0.9192 0.2254
vn 0.5303 -0.6034 0.5955
vn 0.9114 0.3703 -0.1798
vn 0.0287 0.3463 0.9377
vn -0.9217 0.2677 -0.2809
vn 0.0626 -0.6746 0.7356
vn 0.1934 -0.3848 0.9025
vn -0.3124 -0.9499 -0.0090
vn -0.7733 -0.6179 0.1422
vn 0.0672 0.9965 0.0488
vn 0.3796 0.8946 -0.2359
vn 0.2937 0.0479 0.9547
vn -0.0934 0.9923 -0.0812
vn 0.5956 -0.6824 0.4237
vn 0.0733 -0.6724 0.7365
vn 0.1643 -0.9237 -0.3461
vn 0.2408 -0.2859 0.9275
vn 0.7540 0.6331 0.1752
vn -0.0973 0.9948 -0.0290
vn 0.2880 -0.3491 0.8917
vn 0.1615 -0.2715 0.9488
vn 0.0573 0.9834 -0.1722
vn 0.9568 -0.2856 0.0537
vn 0.7480 -0.5532 -0.3668
vn -0.2336 0.8274 0.5107
vn -0.9149 -0.4036 -0.0092
vn 0.5426 -0.4853 -0.6856
vn 0.1689 -0.9820 -0.0851
vn -0.1661 0.7603 0.6279
vn -0.3177 0.6577 0.6830
vn 0.8371 -0.3619 -0.4103
vn -0.9461 0.1645 -0.2789
vn -0.9993 -0.0088 -0.0377
vn 0.3414 0.9160 0.2106
vn 0.3923 0.8877 -0.2409
vn -0.1566 -0.8316 0.5328
vn -0.4191 -0.6227 0.6608
vn 0.6934 0.6847 0.2245
vn 0.2976 0.5047 0.8104
vn -0.1607 -0.8103 -0.5635
vn -0.2962 -0.9520 -0.0778
vn 0.2383 -0.3285 0.9139
vn 0.1826 -0.0836 0.9796
vn 0.0896 -0.7485 0.6571
vn -0.2456 -0.8572 0.4526
vn -0.4292 0.9019 -0.0477
vn -0.1936 0.7540 0.6277
vn -0.0696 0.9968 0.0399
vn 0.0697 0.9858 -0.1525
vn 0.2871 -0.6740 -0.6806
vn -0.0084 0.9958 -0.0909
vn -0.0074 0.9965 -0.0835
vn 0.2770 -0.3163 0.9073
vn 0.1664 -0.3294 0.9294
vn 0.4033 0.8766 -0.2627
vn -0.8458 -0.1169 -0.5205
vn -0.6655 0.0154 -0.7463
vn 0.8479 -0.3827 -0.3669
vn 0.8241 0.4401 -0.3566
vn -0.0315 0.9194 0.3920
vn 0.0996 0.9940 0.0442
vn -0.2836 -0.9532 -0.1049
vn -0.8540 -0.1187 -0.5066
vn -0.1072 0.9914 -0.0752
vn -0.0262 0.9203 0.3904
vn 0.7992 -0.0828 0.5953
vn 0.8928 -0.3505 0.2828
vn -0.3327 -0.9429 0.0145
vn -0.2435 -0.8909 0.3833
vn -0.8039 0.2525 -0.5384
vn -0.7323 0.0510 -0.6791
vn -0.3122 -0.9299 0.1946
vn -0.8107 -0.5825 0.0597
vn 0.7153 -0.5439 -0.4388
vn 0.6560 -0.5673 0.4979
vn -0.7121 0.1247 -0.6909
vn -0.1108 0.8443 0.5243
vn -0.2760 0.1731 0.9454
vn 0.2495 -0.4080 0.8782
vn 0.6494 -0.6619 0.3745
vn -0.5290 0.7381 -0.4187
vn -0.0003 0.4341 -0.9009
vn 0.2798 0.7297 0.6238
vn 0.0846 0.9527 0.2919
vn -0.8042 0.4323 0.4078
vn -0.6550 -0.5827 0.4812
vn 0.0715 -0.7848 0.6156
vn 0.1557 -0.9163 -0.3689
vn 0.7205 0.6098 -0.3302
vn 0.6604 0.6577 0.3622
vn -0.1398 0.9541 0.2650
vn -0.1384 0.9548 0.2632
vn -0.9902 -0.0740 -0.1184
vn -0.9122 0.0017 -0.4097
vn -0.0923 0.7203 -0.6874
vn -0.1912 0.9671 -0.1680
vn -0.0252 0.4076 0.9128
vn -0.7584 0.2318 0.6092
vn -0.3695 -0.8744 0.3145
vn -0.4778 -0.8668 -0.1428
vn 0.9176 -0.3895 -0.0791
vn 0.7326 -0.5503 0.4006
vn 0.3746 0.9030 0.2106
vn 0.0455 0.9971 -0.0606
vn -0.7663 0.5245 0.3711
vn -0.9885 0.0959 -0.1166
vn 0.2140 0.8936 0.3945
vn 0.4305 0.0544 0.9009
vn 0.6252 -0.6560 0.4229
vn 0.7377 -0.5576 0.3806
vn 0.1770 -0.3066 0.9352
vn -0.3478 0.2324 0.9083
vn -0.9197 0.2926 -0.2620
vn -0.5296 0.7773 -0.3396
vn 0.8216 0.3494 -0.4504
vn 0.4259 -0.3191 0.8466
vn 0.5851 -0.5624 0.5843
vn 0.2106 0.9776 0.0012
vn 0.3223 0.9459 -0.0364
vn -0.8720 0.4723 0.1283
vn -0.8686 0.4955 0.0008
vn 0.7406 0.5903 -0.3211
vn -0.4446 -0.8422 0.3049
vn -0.1793 -0.8329 0.5236
vn 0.1620 -0.2886 0.9437
vn 0.3959 -0.1013 0.9127
vn -0.1390 0.7977 -0.5869
vn 0.0739 0.9129 -0.4015
vn -0.1849 -0.8401 0.5100
vn -0.0665 -0.9013 0.4281
vn 0.3086 0.9132 0.2660
vn 0.1329 0.9692 0.2074
vn 0.4255 -0.4654 0.7761
vn 0.4476 -0.4282 0.7850
vn -0.8898 -0.2675 0.3697
vn -0.9956 -0.0598 -0.0715
vn -0.2043 0.9138 -0.3512
vn -0.2381 0.9088 -0.3426
vn 0.8442 -0.5266 0.0999
vn 0.7749 -0.5971 -0.2073
vn 0.3735 -0.3154 0.8724
vn 0.2493 -0.4328 0.8663
vn -0.5703 0.7562 0.3210
vn -0.6526 0.7539 -0.0763
vn 0.7182 -0.5437 -0.4343
vn 0.7803 -0.3971 -0.4832
vn -0.9901 -0.0683 0.1230
vn -0.9401 -0.3406 -0.0127
vn -0.0888 0.4284 -0.8992
vn 0.1984 0.9632 0.1811
vn 0.1745 0.9612 0.2138
vn 0.3157 -0.4717 0.8233
vn 0.1166 -0.5510 0.8263
vn -0.7986 -0.2445 -0.5500
vn -0.5874 -0.8089 0.0261
vn 0.5889 -0.1696 0.7902
vn 0.2942 0.4895 0.8209
vn -0.3210 0.6934 0.6451
vn 0.0012 0.8658 0.5003
vn 0.5603 -0.8003 0.2135
vn 0.4709 -0.5974 -0.6491
vn -0.6751 -0.5710 0.4670
vn -0.4264 -0.8249 0.3711
vn -0.1419 0.7527 -0.6428
# 170 vertex normals

vt 0.8262 0.1803 0.0000
vt 0.8337 0.1811 0.0000
vt 0.8251 0.1856 0.0000
vt 0.7855 0.1788 0.0000
vt 0.7785 0.1799 0.0000
vt 0.7753 0.1732 0.0000
vt 0.8005 0.1399 0.0000
vt 0.7953 0.1449 0.0000
vt 0.7930 0.1386 0.0000
vt 0.8123 0.1770 0.0000
vt 0.8018 0.1762 0.0000
vt 0.8166 0.1666 0.0000
vt 0.7930 0.1626 0.0000
vt 0.7782 0.1582 0.0000
vt 0.7905 0.1541 0.0000
vt 0.8081 0.1879 0.0000
vt 0.8035 0.1911 0.0000
vt 0.7950 0.1886 0.0000
vt 0.7840 0.1510 0.0000
vt 0.7792 0.1539 0.0000
vt 0.7828 0.1466 0.0000
vt 0.7875 0.1778 0.0000
vt 0.7767 0.1706 0.0000
vt 0.7794 0.1665 0.0000
vt 0.7747 0.1502 0.0000
vt 0.7720 0.1535 0.0000
vt 0.7694 0.1486 0.0000
vt 0.8054 0.1570 0.0000
vt 0.8016 0.1630 0.0000
vt 0.8208 0.1446 0.0000
vt 0.8257 0.1445 0.0000
vt 0.8253 0.1519 0.0000
vt 0.8001 0.1797 0.0000
vt 0.7973 0.1863 0.0000
vt 0.7884 0.1724 0.0000
vt 0.8162 0.1927 0.0000
vt 0.8183 0.1898 0.0000
vt 0.8146 0.1862 0.0000
vt 0.8194 0.1782 0.0000
vt 0.7867 0.1481 0.0000
vt 0.7865 0.1400 0.0000
vt 0.7774 0.1423 0.0000
vt 0.7822 0.1410 0.0000
vt 0.7778 0.1489 0.0000
vt 0.7942 0.1549 0.0000
vt 0.7996 0.1578 0.0000
vt 0.8068 0.1479 0.0000
vt 0.7963 0.1485 0.0000
vt 0.7900 0.1865 0.0000
vt 0.7830 0.1851 0.0000
vt 0.7899 0.1833 0.0000
vt 0.7852 0.1869 0.0000
vt 0.7976 0.1918 0.0000
vt 0.7759 0.1568 0.0000
vt 0.7922 0.1412 0.0000
vt 0.7913 0.1481 0.0000
vt 0.7985 0.1772 0.0000
vt 0.7998 0.1648 0.0000
vt 0.8072 0.1401 0.0000
vt 0.8153 0.1421 0.0000
vt 0.8114 0.1437 0.0000
vt 0.7715 0.1607 0.0000
vt 0.7728 0.1667 0.0000
vt 0.7681 0.1660 0.0000
vt 0.7712 0.1737 0.0000
vt 0.7726 0.1714 0.0000
vt 0.8205 0.1519 0.0000
vt 0.8204 0.1633 0.0000
vt 0.8220 0.1846 0.0000
vt 0.7825 0.1890 0.0000
vt 0.7703 0.1761 0.0000
vt 0.7930 0.1929 0.0000
vt 0.8005 0.1519 0.0000
vt 0.8119 0.1512 0.0000
vt 0.8309 0.1742 0.0000
vt 0.8216 0.1796 0.0000
vt 0.8268 0.1711 0.0000
vt 0.8100 0.1810 0.0000
vt 0.8178 0.1696 0.0000
vt 0.8142 0.1798 0.0000
vt 0.8016 0.1946 0.0000
vt 0.8112 0.1937 0.0000
vt 0.8130 0.1497 0.0000
vt 0.8216 0.1476 0.0000
vt 0.8163 0.1454 0.0000
vt 0.8341 0.1846 0.0000
vt 0.8198 0.1914 0.0000
vt 0.7657 0.1704 0.0000
vt 0.7741 0.1431 0.0000
vt 0.7937 0.1503 0.0000
vt 0.7749 0.1623 0.0000
vt 0.8201 0.1415 0.0000
vt 0.8119 0.1837 0.0000
vt 0.8156 0.1824 0.0000
vt 0.8260 0.1413 0.0000
vt 0.8158 0.1397 0.0000
vt 0.7857 0.1524 0.0000
vt 0.8227 0.1705 0.0000
vt 0.8090 0.1390 0.0000
vt 0.8260 0.1568 0.0000
vt 0.7689 0.1440 0.0000
vt 0.7995 0.1386 0.0000
# 102 texture coords

g Forest_B_Rock_04
usemtl ForestPack_Trees
s off
f 1/1/1 2/2/1 3/3/1 
f 4/4/2 5/5/2 6/6/2 
f 7/7/3 8/8/3 9/9/3 
f 10/10/4 11/11/4 12/12/4 
f 13/13/5 14/14/5 15/15/5 
f 16/16/6 17/17/6 18/18/6 
f 19/19/7 20/20/7 21/21/7 
f 22/22/8 23/23/8 24/24/8 
f 25/25/9 26/26/9 27/27/9 
f 28/28/10 12/12/10 29/29/10 
f 30/30/11 2/31/11 31/32/11 
f 32/33/12 10/10/12 33/34/12 
f 24/24/13 13/13/13 34/35/13 
f 17/17/14 16/16/14 35/36/14 
f 36/37/15 37/38/15 38/39/15 
f 39/40/16 21/21/16 40/41/16 
f 41/42/17 42/43/17 43/44/17 
f 44/45/18 45/46/18 13/13/18 
f 46/47/19 47/48/19 7/7/19 
f 48/49/20 49/50/20 50/51/20 
f 33/34/21 50/51/21 32/33/21 
f 51/52/22 18/18/22 52/53/22 
f 24/24/23 14/14/23 13/13/23 
f 26/26/24 43/44/24 53/54/24 
f 40/41/25 54/55/25 55/56/25 
f 13/13/26 56/57/26 34/35/26 
f 57/58/27 12/12/27 11/11/27 
f 58/59/28 59/60/28 60/61/28 
f 26/62/29 61/63/29 27/64/29 
f 62/65/30 63/66/30 5/5/30 
f 28/28/31 64/67/31 65/68/31 
f 66/69/32 36/37/32 38/39/32 
f 67/70/33 68/71/33 49/50/33 
f 52/53/34 69/72/34 51/52/34 
f 45/46/35 44/45/35 70/73/35 
f 28/28/36 71/74/36 64/67/36 
f 62/65/37 27/64/37 63/66/37 
f 31/75/38 2/2/38 1/1/38 
f 1/1/39 72/76/39 73/77/39 
f 20/20/40 43/44/40 21/21/40 
f 40/41/41 21/21/41 43/44/41 
f 74/78/42 33/34/42 10/10/42 
f 10/10/43 75/79/43 76/80/43 
f 53/54/44 43/44/44 20/20/44 
f 53/54/45 20/20/45 15/15/45 
f 52/53/46 77/81/46 69/72/46 
f 78/82/47 77/81/47 17/17/47 
f 13/13/48 57/58/48 56/57/48 
f 13/13/49 45/46/49 57/58/49 
f 33/34/50 48/49/50 50/51/50 
f 33/34/51 16/16/51 18/18/51 
f 79/83/52 80/84/52 64/67/52 
f 45/46/53 70/73/53 71/74/53 
f 79/83/54 46/47/54 81/85/54 
f 60/61/55 46/47/55 58/59/55 
f 51/52/56 69/72/56 67/70/56 
f 60/61/57 81/85/57 46/47/57 
f 60/61/58 59/60/58 81/85/58 
f 34/35/59 56/57/59 22/22/59 
f 34/35/60 22/22/60 24/24/60 
f 40/41/61 43/44/61 42/43/61 
f 3/3/62 36/37/62 66/69/62 
f 3/3/63 82/86/63 83/87/63 
f 62/65/64 84/88/64 27/64/64 
f 85/89/65 25/25/65 27/27/65 
f 44/45/66 47/48/66 70/73/66 
f 40/41/67 55/56/67 39/40/67 
f 35/36/68 78/82/68 17/17/68 
f 83/87/69 36/37/69 3/3/69 
f 47/48/70 8/8/70 7/7/70 
f 86/90/71 47/48/71 44/45/71 
f 26/62/72 53/54/72 87/91/72 
f 26/62/73 87/91/73 61/63/73 
f 16/16/74 37/38/74 35/36/74 
f 16/16/75 33/34/75 74/78/75 
f 2/31/76 30/30/76 88/92/76 
f 3/3/77 2/2/77 82/86/77 
f 37/38/78 16/16/78 89/93/78 
f 90/94/79 38/39/79 37/38/79 
f 49/50/80 68/71/80 5/5/80 
f 5/5/81 50/51/81 49/50/81 
f 2/31/82 88/92/82 82/95/82 
f 71/74/83 28/28/83 45/46/83 
f 45/46/84 28/28/84 29/29/84 
f 50/51/85 22/22/85 32/33/85 
f 50/51/86 5/5/86 4/4/86 
f 30/30/87 59/60/87 88/92/87 
f 58/59/88 91/96/88 59/60/88 
f 92/97/89 15/15/89 20/20/89 
f 15/15/90 92/97/90 55/56/90 
f 73/77/91 93/98/91 65/68/91 
f 90/94/92 75/79/92 38/39/92 
f 33/34/93 18/18/93 48/49/93 
f 51/52/94 48/49/94 18/18/94 
f 43/44/95 25/25/95 85/89/95 
f 43/44/96 26/26/96 25/25/96 
f 70/73/97 47/48/97 46/47/97 
f 70/73/98 46/47/98 71/74/98 
f 66/69/99 72/76/99 1/1/99 
f 3/3/100 66/69/100 1/1/100 
f 58/59/101 94/99/101 91/96/101 
f 7/7/102 58/59/102 46/47/102 
f 65/68/103 12/12/103 28/28/103 
f 75/79/104 65/68/104 93/98/104 
f 17/17/105 52/53/105 18/18/105 
f 17/17/106 77/81/106 52/53/106 
f 61/63/107 63/66/107 27/64/107 
f 87/91/108 23/23/108 61/63/108 
f 15/15/109 55/56/109 86/90/109 
f 86/90/110 55/56/110 54/55/110 
f 73/100/111 65/68/111 64/67/111 
f 31/75/112 1/1/112 73/77/112 
f 15/15/113 86/90/113 44/45/113 
f 44/45/114 13/13/114 15/15/114 
f 23/23/115 4/4/115 6/6/115 
f 23/23/116 6/6/116 61/63/116 
f 10/10/117 12/12/117 75/79/117 
f 65/68/118 75/79/118 12/12/118 
f 80/84/119 30/30/119 31/32/119 
f 59/60/120 30/30/120 81/85/120 
f 84/101/121 85/89/121 27/27/121 
f 87/91/122 14/14/122 24/24/122 
f 23/23/123 87/91/123 24/24/123 
f 86/90/124 8/8/124 47/48/124 
f 8/8/125 86/90/125 54/55/125 
f 64/67/126 31/32/126 73/100/126 
f 64/67/127 80/84/127 31/32/127 
f 43/44/128 85/89/128 41/42/128 
f 90/94/129 37/38/129 89/93/129 
f 74/78/130 10/10/130 76/80/130 
f 29/29/131 12/12/131 57/58/131 
f 29/29/132 57/58/132 45/46/132 
f 95/102/133 58/59/133 7/7/133 
f 9/9/134 95/102/134 7/7/134 
f 76/80/135 89/93/135 74/78/135 
f 74/78/136 89/93/136 16/16/136 
f 92/97/137 20/20/137 19/19/137 
f 55/56/138 92/97/138 39/40/138 
f 4/4/139 22/22/139 50/51/139 
f 4/4/140 23/23/140 22/22/140 
f 75/79/141 93/98/141 38/39/141 
f 38/39/142 93/98/142 73/77/142 
f 9/9/143 8/8/143 54/55/143 
f 9/9/144 54/55/144 40/41/144 
f 61/63/145 6/6/145 63/66/145 
f 6/6/146 5/5/146 63/66/146 
f 56/57/147 57/58/147 11/11/147 
f 56/57/148 32/33/148 22/22/148 
f 79/83/149 81/85/149 80/84/149 
f 30/30/150 80/84/150 81/85/150 
f 5/5/151 68/71/151 62/65/151 
f 62/65/152 68/71/152 84/88/152 
f 72/76/153 38/39/153 73/77/153 
f 66/69/154 38/39/154 72/76/154 
f 59/60/155 91/96/155 88/92/155 
f 39/40/156 92/97/156 19/19/156 
f 21/21/157 39/40/157 19/19/157 
f 32/33/158 56/57/158 11/11/158 
f 11/11/159 10/10/159 32/33/159 
f 83/87/160 35/36/160 36/37/160 
f 35/36/161 37/38/161 36/37/161 
f 87/91/162 53/54/162 14/14/162 
f 53/54/163 15/15/163 14/14/163 
f 79/83/164 64/67/164 71/74/164 
f 46/47/165 79/83/165 71/74/165 
f 48/49/166 51/52/166 49/50/166 
f 67/70/167 49/50/167 51/52/167 
f 90/94/168 76/80/168 75/79/168 
f 76/80/169 90/94/169 89/93/169 
f 95/102/170 94/99/170 58/59/170 
# 0 polygons - 170 triangles

